<?xml version="1.0" encoding="UTF-8"?>
<svg id="_레이어_2" data-name="레이어 2" xmlns="http://www.w3.org/2000/svg" viewBox="0 0 817.21 378.81">
  <defs>
    <style>
      .cls-1 {
        fill: #fff;
      }
    </style>
  </defs>
  <g id="_레이어_1-2" data-name="레이어 1">
    <g>
      <path class="cls-1" d="M19.69,15.52c-.44-2.65-.2-6.25,2.04-6.62,1.45-.24,2.89,.81,3.31,3.41,.05,.3-.01,.57-.36,.63l-.84,.14c-.33,.05-.49-.13-.56-.47-.08-.4-.61-1.22-1.13-1.13-.82,.14-.92,2.26-.67,3.76,.23,1.4,.82,3.45,1.83,3.28,.47-.08,.65-.5,.67-1.02,.03-.26,.21-.46,.49-.49l.77-.09c.32-.04,.62,.16,.62,.5-.01,1.99-.76,3.45-2.13,3.67-2.11,.35-3.56-2.6-4.04-5.55Z"/>
      <path class="cls-1" d="M26.46,14.37c-.43-2.55-.29-6.19,1.92-6.54,2.37-.38,3.45,3.25,3.83,5.62,.5,3.09,.21,6.22-1.88,6.55-1.97,.32-3.38-2.54-3.87-5.63Zm3.42,2.81c.77-.12,.82-2.03,.59-3.48-.23-1.42-.9-3.25-1.64-3.13-.84,.13-.87,1.92-.62,3.49,.2,1.24,.88,3.23,1.68,3.12Z"/>
      <path class="cls-1" d="M33.28,13.32c-.41-2.66-.15-6.26,2.1-6.6,1.45-.22,2.88,.84,3.28,3.45,.05,.3-.02,.57-.37,.62l-.84,.13c-.33,.05-.48-.13-.56-.48-.08-.4-.6-1.22-1.12-1.14-.82,.13-.94,2.25-.7,3.75,.22,1.4,.79,3.46,1.8,3.3,.47-.07,.66-.5,.68-1.01,.03-.26,.21-.46,.5-.49l.77-.08c.32-.03,.61,.16,.61,.5-.03,1.99-.79,3.44-2.17,3.65-2.11,.33-3.53-2.64-3.99-5.59Z"/>
      <path class="cls-1" d="M40.09,12.24c-.4-2.56-.22-6.19,2-6.52,2.37-.35,3.41,3.29,3.76,5.67,.46,3.09,.13,6.22-1.96,6.53-1.97,.29-3.34-2.58-3.8-5.68Zm3.38,2.85c.77-.11,.84-2.02,.63-3.48-.21-1.42-.86-3.26-1.61-3.15-.84,.12-.9,1.91-.66,3.48,.18,1.24,.84,3.24,1.64,3.14Z"/>
      <path class="cls-1" d="M52.16,12.8c-.12-.9-.08-1.8,.15-2.39,.04-.09,.05-.16,.04-.24-.01-.08-.04-.17-.1-.23-.36-.55-.6-1.28-.72-2.24-.22-1.69,.04-3.36,1.51-3.56,1.17-.16,2.07,.75,2.34,3.06l.11,.94c.02,.13,.16,.24,.3,.22l.59-.08c.65-.09,.96,.28,1.06,1.04,.1,.79-.1,1.24-.75,1.33l-.54,.07c-.14,.02-.25,.15-.23,.29l.29,2.16c.04,.28,.32,.57,.59,.43l.4-.21c.28-.14,.57,.16,.61,.45l.17,1.32c.04,.29-.14,.55-.47,.59l-.73,.1c-.32,.04-.67-.34-.93-.3-.09,.01-.15,.05-.21,.15-.3,.45-.64,.68-.97,.73-1.35,.18-2.25-1.78-2.49-3.63Zm1.64-4.17c.25-.03,.35-.18,.31-.48l-.17-1.19c-.05-.35-.22-.43-.37-.41-.35,.05-.45,.61-.39,1.13,.07,.52,.29,1,.63,.96Zm.61,4.9c.19-.03,.36-.34,.31-.74l-.15-1.16c-.02-.17-.16-.29-.34-.26-.38,.05-.45,.4-.35,1.12,.1,.79,.34,1.06,.53,1.04Z"/>
      <path class="cls-1" d="M63.39,9.1c-.3-2.67,.11-6.26,2.37-6.51,1.46-.16,2.84,.96,3.14,3.58,.03,.3-.04,.57-.39,.61l-.84,.09c-.33,.04-.48-.15-.54-.5-.06-.4-.55-1.25-1.08-1.19-.82,.09-1.03,2.21-.86,3.72,.16,1.41,.64,3.48,1.66,3.37,.47-.05,.68-.47,.72-.98,.04-.26,.23-.45,.52-.47l.77-.05c.32-.02,.61,.19,.59,.53-.11,1.99-.93,3.41-2.31,3.56-2.12,.24-3.42-2.78-3.76-5.75Z"/>
      <path class="cls-1" d="M70.89,13.65l-1.08-10.74c-.03-.29,.19-.55,.49-.58l.67-.07c.3-.03,.57,.18,.6,.47l.8,7.94c.03,.29,.3,.5,.6,.47l1.9-.19c.3-.03,.57,.18,.6,.47l.18,1.75c.03,.29-.19,.55-.49,.58l-3.65,.37c-.3,.03-.57-.18-.6-.47Z"/>
      <path class="cls-1" d="M76.26,12.98l1.39-10.95c.03-.22,.21-.41,.46-.43l.42-.04c.25-.02,.45,.13,.53,.34l3.26,10.55c.1,.36-.12,.67-.51,.71l-.63,.06c-.25,.02-.45-.11-.53-.36l-.55-1.87c-.07-.25-.28-.37-.53-.34l-.91,.08c-.25,.02-.43,.17-.46,.43l-.22,1.94c-.03,.26-.21,.43-.46,.45l-.63,.06c-.39,.03-.66-.23-.62-.61Zm2.64-4.32c.28-.02,.38-.32,.36-.54-.09-1.03-.35-1.53-.56-1.51-.23,.02-.39,.56-.3,1.59,.03,.32,.22,.49,.5,.47Z"/>
      <path class="cls-1" d="M83.53,12.5l-.81-10.76c-.02-.29,.21-.54,.51-.56l.67-.05c.3-.02,.56,.2,.59,.48l.81,10.76c.02,.29-.21,.54-.51,.56l-.67,.05c-.3,.02-.56-.2-.58-.48Z"/>
      <path class="cls-1" d="M86.83,12.25l-.68-10.77c-.02-.29,.21-.54,.51-.56l2.03-.13c1.37-.09,2.21,1.76,2.32,3.41,.06,.95-.08,1.75-.31,2.36-.03,.07-.04,.14-.04,.21,0,.07,.04,.15,.08,.22,.27,.41,.59,1.01,.65,1.86l.09,1.38c.05,.81,.24,1.34,.26,1.56,.02,.32-.08,.68-.42,.7l-.77,.05c-.58,.04-.77-1.29-.83-2.32l-.07-1.16c-.02-.29-.28-.51-.58-.49h-.14c-.3,.03-.53,.28-.51,.57l.19,3c.02,.29-.21,.54-.51,.56l-.67,.04c-.3,.02-.56-.2-.58-.49Zm1.94-6.53c.37-.02,.49-.32,.45-1.04-.05-.73-.24-1.05-.6-1.03-.32,.02-.55,.25-.53,.56l.07,1.03c.02,.37,.28,.51,.61,.49Z"/>
      <path class="cls-1" d="M97.28,6.31c-.09-2.69,.61-6.23,2.89-6.3,1.46-.05,2.76,1.18,2.84,3.82,0,.3-.09,.56-.44,.57l-.85,.03c-.34,.01-.46-.19-.49-.54-.03-.41-.45-1.29-.98-1.27-.83,.03-1.2,2.12-1.16,3.64,.05,1.42,.36,3.52,1.38,3.49,.48-.02,.71-.41,.8-.92,.06-.26,.27-.43,.55-.42h.78c.32,.02,.59,.24,.55,.58-.27,1.97-1.2,3.32-2.59,3.37-2.13,.07-3.19-3.04-3.28-6.04Z"/>
      <path class="cls-1" d="M104.37,11.46l-.14-10.79c0-.29,.24-.53,.54-.53h.67c.3-.01,.55,.22,.55,.51l.11,7.98c0,.29,.25,.52,.55,.52l1.91-.03c.3,0,.55,.23,.55,.52l.02,1.76c0,.29-.24,.53-.54,.53l-3.67,.05c-.3,0-.55-.23-.55-.52Z"/>
      <path class="cls-1" d="M109.79,11.25L112.16,.48c.05-.22,.25-.39,.5-.39h.42c.25,0,.44,.17,.49,.39l2.29,10.8c.07,.37-.18,.66-.57,.66h-.64c-.25,0-.44-.16-.49-.41l-.38-1.91c-.05-.25-.25-.39-.49-.39h-.92c-.25,0-.44,.13-.5,.38l-.4,1.91c-.05,.25-.25,.41-.5,.4h-.64c-.39,0-.63-.29-.56-.66Zm3.02-4.06c.28,0,.41-.29,.41-.51,0-1.03-.21-1.56-.42-1.56-.23,0-.44,.52-.45,1.55,0,.32,.17,.51,.46,.51Z"/>
      <path class="cls-1" d="M117.03,11.44l.18-10.79c0-.29,.26-.52,.56-.52h.67c.3,.02,.54,.26,.54,.54l-.18,10.79c0,.29-.26,.52-.56,.51h-.67c-.3-.02-.54-.26-.54-.54Z"/>
      <path class="cls-1" d="M120.36,11.5l.3-10.79c0-.29,.26-.52,.56-.51l2.03,.06c1.37,.04,2.05,1.95,2,3.61-.03,.95-.24,1.74-.52,2.32-.04,.07-.06,.13-.06,.2,0,.07,.03,.15,.07,.22,.23,.43,.5,1.06,.48,1.91l-.04,1.39c-.02,.81,.12,1.36,.12,1.58,0,.32-.14,.67-.48,.66l-.78-.02c-.58-.02-.65-1.35-.62-2.39l.03-1.17c0-.29-.23-.53-.53-.54h-.14c-.3-.01-.55,.22-.56,.5l-.08,3.01c0,.29-.26,.52-.56,.51l-.67-.02c-.3,0-.54-.25-.53-.54Zm2.52-6.32c.37,.01,.52-.27,.54-1,.02-.73-.15-1.07-.5-1.08-.32,0-.57,.2-.58,.51l-.03,1.03c0,.37,.23,.53,.57,.54Z"/>
      <path class="cls-1" d="M453.74,18.57l.29-10.45c.01-.39,.34-.68,.74-.67l1.5,.04c1.38,.04,2.01,1.85,1.97,3.52-.02,.81-.16,1.48-.48,2.02-.07,.15-.08,.32,0,.47,.34,.59,.51,1.33,.48,2.3-.05,1.78-.91,3.56-2.3,3.52l-1.5-.04c-.41-.01-.71-.32-.7-.71Zm2.16-2.23c.42,.01,.63-.36,.64-.86,.02-.68-.24-.94-.59-.95-.19,0-.43,.36-.45,.88-.01,.52,.2,.92,.4,.92Zm.09-4.4c.39,.01,.59-.34,.61-.8,.02-.61-.22-.85-.56-.86-.16,0-.4,.34-.41,.82-.01,.47,.19,.83,.36,.84Z"/>
      <path class="cls-1" d="M459.56,18.9l.33-10.79c0-.29,.26-.52,.56-.51l.67,.02c.3,0,.54,.25,.53,.54l-.33,10.79c0,.29-.26,.52-.56,.51l-.67-.02c-.3,0-.54-.25-.53-.54Z"/>
      <path class="cls-1" d="M463.09,19.01l.36-10.79c0-.29,.27-.52,.56-.51l.67,.02c.3,0,.54,.25,.53,.54l-.36,10.79c0,.29-.27,.52-.56,.51l-.67-.02c-.3,0-.54-.25-.53-.54Z"/>
      <path class="cls-1" d="M466.55,13.77c.11-2.94,1.11-6.13,3.32-6.05,1.55,.06,2.51,1.82,2.58,3.78,0,.32-.23,.55-.59,.54l-.76-.03c-.25,0-.45-.17-.51-.41-.14-.56-.54-1.27-.82-1.28-.88-.03-1.35,2-1.4,3.52-.06,1.55,.27,3.55,1.14,3.58,.46,.02,.81-.81,.96-1.55,.02-.1-.05-.22-.17-.23l-.46-.02c-.3-.01-.56-.26-.54-.54l.04-.98c.01-.29,.28-.51,.58-.5l2.15,.08c.3,.01,.56,.26,.54,.54l-.02,.56c-.1,2.62-1.12,5.32-3.18,5.24-2.29-.09-2.96-3.61-2.86-6.25Z"/>
      <path class="cls-1" d="M478.36,19.6l.5-10.78c.01-.29,.27-.51,.57-.5l1.78,.08c1.64,.08,2.12,1.98,2.03,3.9-.09,1.96-.74,3.87-2.38,3.8h-.02c-.3-.02-.56,.21-.57,.5l-.14,3.07c-.01,.29-.27,.51-.57,.5l-.67-.03c-.3-.01-.54-.26-.52-.55Zm2.57-6.36c.37,.02,.47-.3,.51-1.01,.02-.49-.04-1-.41-1.02-.3-.01-.52,.04-.54,.5l-.05,.98c-.02,.46,.19,.53,.49,.55Z"/>
      <path class="cls-1" d="M484.31,19.88l.54-10.78c.01-.29,.27-.51,.57-.5l.67,.03c.3,.02,.53,.26,.52,.55l-.53,10.78c-.01,.29-.27,.51-.57,.5l-.67-.03c-.3-.02-.53-.26-.52-.55Z"/>
      <path class="cls-1" d="M487.8,20.06l.56-10.78c.02-.29,.27-.51,.57-.5l.67,.04c.3,.02,.53,.27,.52,.55l-.56,10.78c-.02,.29-.27,.51-.57,.5l-.67-.04c-.3-.02-.53-.27-.52-.55Z"/>
      <path class="cls-1" d="M491.36,14.88c.17-2.94,1.23-6.11,3.43-5.98,1.55,.09,2.48,1.87,2.51,3.83,0,.32-.24,.54-.6,.52l-.76-.04c-.25-.01-.45-.18-.51-.42-.13-.57-.51-1.28-.79-1.3-.88-.05-1.38,1.97-1.47,3.49-.09,1.55,.2,3.55,1.07,3.6,.46,.03,.82-.8,.99-1.53,.02-.1-.04-.22-.16-.23l-.46-.03c-.3-.02-.55-.27-.53-.56l.06-.98c.02-.29,.29-.51,.59-.49l2.15,.12c.3,.02,.55,.27,.53,.55l-.03,.56c-.15,2.62-1.22,5.3-3.28,5.18-2.29-.13-2.89-3.67-2.74-6.3Z"/>
      <path class="cls-1" d="M788.86,141.53l6.42-8.67c.17-.23,.51-.27,.75-.1l.54,.4c.24,.18,.3,.52,.13,.75l-6.42,8.67c-.17,.23-.51,.27-.75,.09l-.54-.4c-.24-.18-.3-.52-.13-.75Z"/>
      <path class="cls-1" d="M792.52,144.52l5.67-9.35c.19-.3,.57-.36,.85-.11l.49,.43c.2,.17,.24,.45,.11,.65l-2.78,4.42c-.4,.59-.07,.88,.46,.41l3.95-3.4c.2-.18,.48-.14,.68,.03l.48,.42c.28,.24,.26,.63,0,.86l-8.47,6.9c-.18,.16-.46,.16-.66-.02l-.66-.58c-.19-.16-.25-.44-.11-.65Z"/>
      <path class="cls-1" d="M799.88,143.74c1.88-1.78,4.98-3.69,6.5-2.05,1.63,1.76-.78,4.68-2.54,6.31-2.29,2.13-5.05,3.64-6.49,2.08-1.36-1.46,.24-4.22,2.53-6.35Zm-.43,4.4c.53,.57,2.14-.45,3.22-1.45,1.05-.98,2.2-2.55,1.68-3.11-.58-.62-2.08,.35-3.25,1.43-.92,.85-2.2,2.53-1.66,3.13Z"/>
      <path class="cls-1" d="M800.56,152.52l8.55-6.58c.23-.18,.57-.12,.75,.11l1.24,1.61c.84,1.09-.22,2.82-1.54,3.83-.75,.58-1.5,.91-2.13,1.06-.07,.01-.14,.04-.19,.08s-.1,.12-.13,.19c-.18,.45-.51,1.06-1.18,1.57l-1.1,.85c-.64,.5-.98,.95-1.15,1.08-.25,.2-.61,.31-.82,.05l-.47-.62c-.35-.46,.64-1.36,1.46-1.99l.92-.71c.23-.18,.27-.52,.08-.75l-.09-.11c-.18-.24-.52-.29-.75-.11l-2.39,1.84c-.23,.18-.57,.12-.75-.11l-.41-.53c-.18-.24-.15-.58,.08-.75Zm6.5-2.04c.23,.29,.54,.23,1.12-.21s.74-.79,.52-1.07c-.19-.25-.52-.31-.76-.13l-.82,.63c-.29,.23-.27,.52-.06,.78Z"/>
      <path class="cls-1" d="M804.2,157.41l8.97-5.99c.24-.16,.57-.09,.74,.16l.37,.56c.17,.25,.11,.59-.13,.75l-8.97,5.99c-.24,.16-.57,.09-.74-.16l-.37-.56c-.17-.25-.11-.59,.13-.75Z"/>
      <path class="cls-1" d="M808.51,158.21c.5-.29,.75-.05,.82,.05l.46,.78c.11,.18-.06,.57-.31,.71-.57,.33-.97,.75-.74,1.15,.21,.36,.61,.27,1.05,.02,.5-.29,.99-.62,.99-.99l-.07-1.19c.04-1.44,.33-1.95,2.02-2.94,1.53-.9,3.48-1.16,4.26,.18,.75,1.28-.44,2.83-1.97,3.73-.34,.2-.66,.24-.79,.02l-.48-.82c-.23-.4,.12-.63,.36-.76,.38-.22,.53-.47,.39-.7-.17-.29-.47-.3-.85-.07-.41,.24-.81,.42-.81,.86v1.22c0,1.11-.51,2.05-2.06,2.95-1.68,.98-3.6,1.29-4.42-.11-.91-1.55,.4-3.06,2.15-4.09Z"/>
      <path class="cls-1" d="M568.74,302.7l1.5,10.68c.04,.28-.17,.55-.47,.59l-.66,.09c-.3,.04-.57-.16-.61-.44l-.47-3.33c-.04-.28-.32-.48-.61-.44l-.66,.09c-.3,.04-.51,.31-.47,.59l.47,3.33c.04,.29-.17,.55-.47,.59l-.66,.09c-.3,.04-.57-.16-.61-.44l-1.5-10.68c-.04-.28,.17-.55,.47-.59l.66-.09c.3-.04,.57,.16,.61,.44l.49,3.52c.04,.28,.32,.48,.61,.44l.66-.09c.3-.04,.51-.31,.47-.59l-.49-3.51c-.04-.29,.17-.55,.47-.59l.66-.09c.3-.04,.57,.16,.61,.44Z"/>
      <path class="cls-1" d="M563.09,308.93c.43,2.55,.29,6.19-1.92,6.54-2.37,.38-3.45-3.25-3.83-5.62-.49-3.09-.2-6.22,1.89-6.55,1.97-.31,3.37,2.55,3.87,5.63Zm-3.42-2.81c-.77,.12-.82,2.03-.59,3.48,.23,1.42,.89,3.25,1.64,3.13,.84-.13,.87-1.92,.62-3.49-.2-1.24-.87-3.23-1.68-3.12Z"/>
      <path class="cls-1" d="M554.97,304.79l2.03,10.6c.05,.28-.14,.56-.44,.62l-1.75,.34c-1.61,.31-2.52-1.43-2.88-3.32-.37-1.93-.18-3.94,1.43-4.25h.02c.29-.06,.49-.34,.44-.62l-.58-3.02c-.05-.28,.14-.56,.44-.62l.66-.13c.29-.06,.58,.13,.64,.41Zm-1.02,6.79c-.36,.07-.39,.4-.26,1.1,.09,.48,.27,.96,.64,.89,.29-.06,.49-.16,.4-.61l-.18-.96c-.09-.45-.31-.47-.6-.42Z"/>
      <path class="cls-1" d="M549.01,305.97l2.47,10.5c.07,.28-.12,.57-.41,.64l-3.4,.8c-.29,.07-.59-.1-.65-.38l-.4-1.7c-.07-.28,.12-.57,.41-.64l1.68-.4c.29-.07,.48-.36,.41-.64l-.13-.54c-.07-.28-.36-.45-.65-.38l-1.17,.28c-.29,.07-.59-.11-.65-.38l-.4-1.68c-.07-.28,.12-.57,.41-.64l1.17-.28c.29-.07,.48-.36,.41-.64l-.19-.79c-.07-.28-.36-.45-.65-.38l-1.68,.4c-.29,.07-.59-.1-.65-.38l-.4-1.71c-.07-.28,.12-.57,.41-.64l3.4-.8c.29-.07,.59,.1,.65,.38Z"/>
      <path class="cls-1" d="M535.99,309.66l2.81,7.47c.11,.28,.42,.42,.7,.31l1.12-.42c.28-.11,.6,.03,.7,.3l.61,1.63c.1,.27-.05,.58-.33,.68l-4.92,1.85c-.28,.11-.6-.03-.7-.3l-.61-1.63c-.1-.27,.05-.58,.33-.68l1.12-.42c.28-.11,.43-.41,.32-.7l-2.81-7.47c-.1-.27,.05-.58,.33-.68l.63-.24c.28-.11,.6,.03,.7,.3Z"/>
      <path class="cls-1" d="M530.79,311.86l2.87,10.66c.05,.22-.04,.46-.26,.57l-.38,.19c-.22,.11-.47,.05-.62-.12l-7.02-8.53c-.23-.3-.15-.67,.2-.84l.56-.29c.22-.11,.46-.07,.63,.14l1.22,1.52c.16,.2,.4,.23,.62,.12l.82-.42c.22-.11,.33-.32,.26-.57l-.53-1.88c-.07-.25,.03-.47,.25-.59l.56-.29c.35-.18,.7-.03,.8,.33Zm-.8,5c-.25,.13-.23,.44-.13,.64,.47,.92,.9,1.29,1.09,1.19,.2-.11,.15-.67-.32-1.59-.15-.29-.39-.37-.64-.24Z"/>
      <path class="cls-1" d="M523.69,315.54l6.12,8.89c.16,.24,.09,.57-.15,.74l-.55,.38c-.25,.17-.59,.12-.75-.12l-4.53-6.57c-.16-.24-.5-.29-.75-.12l-1.57,1.08c-.25,.17-.59,.12-.75-.12l-1-1.45c-.16-.24-.09-.57,.15-.74l3.02-2.08c.25-.17,.59-.11,.75,.12Z"/>
      <path class="cls-1" d="M518.52,319.36l5.6,9.51c.11,.2,.08,.45-.1,.62l-.31,.29c-.18,.17-.44,.18-.63,.05l-9.02-6.35c-.3-.23-.32-.6-.03-.87l.47-.43c.18-.17,.43-.19,.64-.04l1.58,1.14c.21,.15,.45,.12,.63-.05l.68-.62c.18-.17,.23-.4,.1-.62l-1.01-1.67c-.13-.22-.09-.47,.09-.63l.47-.43c.29-.26,.66-.22,.86,.1Zm.56,5.03c-.21,.19-.1,.49,.05,.65,.7,.76,1.21,1,1.37,.86,.17-.16-.03-.68-.73-1.44-.22-.24-.47-.25-.68-.06Z"/>
      <path class="cls-1" d="M295.83,371.34v.08c-.05,.29-.33,.48-.63,.44l-.66-.1c-.3-.04-.51-.31-.47-.6v-.08c.12-.75,.05-1.16-.12-1.18-.16-.02-.34,.34-.45,1.18l-1.05,7.27c-.04,.29-.32,.48-.62,.44l-.66-.1c-.3-.04-.51-.31-.47-.6l1.1-7.62c.26-1.82,1.14-3.58,2.55-3.38,1.54,.22,1.77,2.22,1.48,4.23Z"/>
      <path class="cls-1" d="M290.85,367.23l-1.54,10.68c-.04,.28-.32,.48-.62,.44l-3.46-.5c-.3-.04-.51-.31-.47-.6l.25-1.72c.04-.29,.32-.48,.62-.44l1.71,.25c.3,.04,.58-.16,.62-.44l.08-.55c.04-.29-.17-.55-.47-.6l-1.19-.17c-.3-.04-.51-.31-.47-.6l.25-1.71c.04-.28,.32-.48,.62-.44l1.19,.17c.3,.04,.58-.16,.62-.44l.11-.8c.04-.28-.17-.55-.47-.6l-1.71-.25c-.3-.04-.51-.31-.47-.6l.25-1.74c.04-.29,.32-.48,.62-.44l3.46,.5c.3,.04,.51,.31,.47,.6Z"/>
      <path class="cls-1" d="M285.2,366.41l-1.57,10.67c-.04,.28-.32,.48-.62,.44l-1.21-.18c-.24-.04-.41-.23-.43-.46l-.27-3.42c-.03-.41-.36-.46-.44-.01l-.57,3.15c-.06,.3-.3,.45-.59,.41l-.7-.1c-.3-.04-.51-.31-.47-.6l1.57-10.67c.04-.28,.32-.48,.62-.44l1.2,.18c.24,.04,.41,.21,.43,.44l.31,3.74c.05,.5,.41,.5,.48,.02l.5-3.41c.04-.28,.32-.48,.62-.44l.66,.1c.3,.04,.51,.31,.47,.6Z"/>
      <path class="cls-1" d="M278.51,365.43l-1.63,10.66c-.04,.28-.32,.48-.62,.44l-3.45-.53c-.3-.05-.51-.32-.46-.6l.26-1.72c.04-.28,.32-.48,.62-.44l1.71,.26c.3,.05,.58-.15,.62-.44l.08-.55c.04-.28-.16-.56-.46-.6l-1.19-.18c-.3-.05-.5-.32-.46-.6l.26-1.7c.04-.28,.32-.48,.62-.44l1.19,.18c.3,.05,.58-.15,.62-.43l.12-.8c.04-.28-.16-.56-.46-.6l-1.71-.26c-.3-.05-.51-.32-.46-.6l.27-1.74c.04-.28,.32-.48,.62-.44l3.45,.53c.3,.05,.51,.32,.46,.6Z"/>
      <path class="cls-1" d="M271.36,364.22l.15,10.93c0,.36-.29,.6-.66,.54l-.64-.1c-.26-.04-.44-.26-.44-.5l.02-5.22c.03-.72-.41-.79-.61-.1l-1.55,4.97c-.08,.26-.33,.38-.59,.33l-.63-.1c-.37-.06-.56-.4-.46-.72l3.53-10.34c.07-.23,.31-.38,.57-.34l.87,.14c.24,.04,.44,.24,.44,.5Z"/>
      <path class="cls-1" d="M266.45,363.51l-1.8,10.63c-.05,.28-.33,.47-.63,.43l-.66-.11c-.3-.05-.5-.32-.45-.61l1.8-10.63c.05-.28,.33-.48,.63-.43l.66,.11c.3,.05,.5,.32,.45,.61Z"/>
      <path class="cls-1" d="M263.16,362.96l-1.91,10.61c-.05,.28-.34,.47-.63,.42l-3.44-.62c-.3-.05-.5-.33-.45-.61l.31-1.71c.05-.28,.34-.47,.63-.42l1.7,.31c.29,.05,.58-.14,.63-.42l.1-.55c.05-.28-.15-.56-.45-.61l-1.18-.21c-.29-.05-.5-.33-.45-.61l.31-1.7c.05-.28,.34-.47,.63-.42l1.18,.21c.3,.05,.58-.14,.63-.42l.14-.8c.05-.28-.15-.56-.45-.61l-1.7-.31c-.29-.05-.5-.33-.45-.61l.31-1.73c.05-.28,.34-.47,.63-.42l3.44,.62c.29,.05,.5,.33,.45,.61Z"/>
      <path class="cls-1" d="M256.05,361.55l-.21,10.93c-.02,.36-.31,.59-.68,.52l-.64-.13c-.26-.05-.43-.27-.42-.51l.19-5.22c.05-.71-.38-.8-.61-.12l-1.72,4.92c-.09,.26-.34,.36-.6,.31l-.62-.12c-.36-.07-.55-.42-.43-.74l3.87-10.22c.08-.23,.32-.37,.58-.32l.87,.17c.24,.05,.44,.26,.42,.51Z"/>
      <path class="cls-1" d="M251.36,360.72l-2.25,10.55c-.06,.28-.35,.46-.64,.4l-3.42-.73c-.29-.06-.49-.35-.43-.63l.36-1.7c.06-.28,.35-.46,.65-.4l1.69,.36c.29,.06,.58-.12,.64-.4l.12-.55c.06-.28-.13-.56-.43-.63l-1.17-.25c-.29-.06-.49-.35-.43-.63l.36-1.69c.06-.28,.35-.46,.65-.4l1.17,.25c.29,.06,.58-.12,.64-.4l.17-.79c.06-.28-.13-.56-.43-.63l-1.69-.36c-.29-.06-.49-.35-.43-.63l.37-1.72c.06-.28,.35-.46,.65-.4l3.42,.73c.29,.06,.49,.35,.43,.63Z"/>
      <path class="cls-1" d="M16.46,147.68l-10.61,1.94c-.28,.05-.56-.15-.61-.44l-.22-1.2c-.05-.24,.09-.46,.29-.56l4.41-2.1c.21-.09,.35-.26,.32-.42s-.22-.26-.45-.28l-4.87-.4c-.23-.01-.43-.17-.47-.42l-.22-1.2c-.05-.29,.14-.58,.42-.63l10.61-1.94c.28-.05,.56,.15,.61,.44l.12,.66c.05,.29-.14,.58-.42,.63l-3.39,.62c-.48,.09-.47,.73,.08,.7l3.69-.14c.22,0,.41,.18,.45,.42l.14,.76c.04,.24-.07,.48-.28,.55l-3.5,1.18c-.47,.16-.31,.77,.18,.69l3.39-.62c.28-.05,.56,.15,.61,.44l.12,.66c.05,.29-.14,.58-.42,.63Z"/>
      <path class="cls-1" d="M14.71,138.44l-10.58,2.14c-.28,.06-.56-.14-.62-.43l-.13-.66c-.06-.29,.12-.58,.41-.64l10.58-2.14c.28-.06,.56,.14,.62,.43l.13,.66c.06,.29-.12,.58-.41,.64Z"/>
      <path class="cls-1" d="M8.83,136.46c-2.64,.52-6.24,.39-6.68-1.84-.28-1.44,.72-2.91,3.31-3.42,.3-.06,.57,0,.64,.34l.16,.83c.06,.33-.11,.49-.46,.57-.4,.1-1.2,.65-1.1,1.17,.16,.81,2.28,.85,3.78,.56,1.39-.27,3.42-.92,3.22-1.93-.09-.47-.52-.64-1.04-.64-.26-.02-.47-.2-.51-.48l-.12-.77c-.04-.32,.14-.62,.48-.63,1.99-.05,3.47,.65,3.74,2.02,.41,2.1-2.49,3.64-5.43,4.21Z"/>
      <path class="cls-1" d="M12.78,128.7l-10.65,1.69c-.28,.05-.56-.16-.6-.46l-.11-.66c-.05-.3,.15-.58,.43-.62l3.32-.53c.28-.05,.48-.33,.43-.62l-.1-.66c-.05-.3-.32-.5-.6-.46l-3.32,.53c-.28,.05-.56-.16-.6-.46l-.11-.66c-.05-.3,.15-.58,.43-.62l10.65-1.69c.28-.05,.56,.16,.6,.46l.1,.66c.05,.3-.15,.58-.43,.62l-3.51,.56c-.28,.05-.48,.33-.43,.62l.1,.66c.05,.3,.32,.5,.6,.46l3.51-.56c.28-.05,.56,.16,.6,.46l.1,.66c.05,.3-.15,.58-.43,.62Z"/>
      <path class="cls-1" d="M11.8,122.22l-10.74,1.01c-.29,.03-.54-.2-.57-.5l-.33-3.48c-.03-.3,.18-.57,.47-.59l1.73-.16c.29-.03,.54,.2,.57,.5l.16,1.72c.03,.3,.29,.52,.57,.5l.56-.05c.29-.03,.5-.29,.47-.59l-.11-1.19c-.03-.3,.18-.57,.47-.59l1.72-.16c.29-.03,.54,.2,.57,.5l.11,1.19c.03,.3,.29,.52,.57,.5l.81-.08c.29-.03,.5-.29,.47-.59l-.16-1.72c-.03-.3,.18-.57,.47-.59l1.75-.16c.29-.03,.54,.2,.57,.5l.33,3.48c.03,.3-.18,.57-.47,.59Z"/>
      <path class="cls-1" d="M11.32,116.72l-10.79,.09c-.29,0-.53-.24-.53-.54v-.67c0-.3,.23-.55,.51-.55l7.98-.06c.29,0,.52-.25,.52-.55v-1.91c-.02-.3,.22-.55,.51-.55h1.76c.29-.02,.53,.23,.53,.53l.03,3.67c0,.3-.23,.55-.52,.55Z"/>
      <path class="cls-1" d="M11.33,111.15l-10.73-1.15c-.29-.03-.5-.3-.46-.6l.07-.67c.03-.3,.29-.52,.58-.49l7.94,.85c.29,.03,.55-.19,.58-.49l.2-1.9c.03-.3,.29-.52,.58-.49l1.75,.19c.29,.03,.5,.3,.46,.6l-.39,3.65c-.03,.3-.29,.52-.58,.49Z"/>
      <path class="cls-1" d="M11.98,105.69l-10.47-2.59c-.28-.07-.45-.37-.38-.66l.84-3.39c.07-.29,.36-.47,.64-.41l1.69,.42c.28,.07,.45,.37,.38,.66l-.41,1.68c-.07,.29,.1,.59,.38,.66l.54,.13c.28,.07,.57-.11,.64-.41l.29-1.17c.07-.29,.36-.47,.64-.41l1.67,.41c.28,.07,.45,.36,.38,.66l-.29,1.17c-.07,.29,.1,.59,.38,.66l.79,.19c.28,.07,.57-.11,.64-.41l.41-1.68c.07-.29,.36-.47,.64-.41l1.71,.42c.28,.07,.45,.36,.38,.66l-.83,3.39c-.07,.29-.36,.47-.64,.41Z"/>
      <path class="cls-1" d="M334.31,81.03l.94-10.76c.02-.29,.27-.49,.57-.46l1.67,.13c2.22,.18,2.81,3.37,2.57,6.13-.25,2.81-1.38,5.87-3.59,5.68l-1.65-.15c-.3-.03-.52-.28-.5-.57Zm2.35-2.14c.91,.08,1.46-.89,1.64-2.98,.18-2.04-.19-3.12-1.1-3.2-.23-.02-.42,.34-.46,.83l-.39,4.46c-.06,.72-.04,.86,.31,.89Z"/>
      <path class="cls-1" d="M340.43,81.43l3.41-10.5c.07-.21,.29-.36,.53-.34l.42,.04c.25,.02,.42,.21,.45,.44l1.23,10.97c.03,.38-.24,.64-.63,.6l-.63-.06c-.25-.03-.42-.2-.45-.45l-.19-1.94c-.03-.26-.21-.41-.45-.44l-.91-.09c-.25-.02-.45,.09-.53,.34l-.58,1.86c-.08,.25-.29,.38-.53,.35l-.63-.06c-.39-.04-.6-.35-.5-.71Zm3.4-3.75c.28,.03,.43-.25,.45-.46,.1-1.03-.05-1.57-.26-1.59-.23-.02-.49,.48-.6,1.5-.03,.32,.12,.52,.41,.55Z"/>
      <path class="cls-1" d="M347.44,82.29l1.22-10.72c.03-.29,.3-.49,.6-.46l1.21,.14c.25,.03,.42,.22,.45,.44l.37,3.41c.04,.41,.37,.45,.44,0l.47-3.16c.05-.3,.28-.46,.58-.43l.7,.08c.3,.03,.52,.3,.48,.58l-1.22,10.72c-.03,.29-.3,.49-.6,.46l-1.21-.14c-.25-.03-.42-.2-.45-.43l-.43-3.73c-.07-.5-.42-.49-.48,0l-.39,3.43c-.03,.29-.31,.49-.6,.46l-.67-.08c-.3-.03-.52-.3-.48-.58Z"/>
      <path class="cls-1" d="M354.32,83.09l1.32-10.71c.04-.29,.31-.49,.61-.45l.67,.08c.3,.04,.51,.3,.48,.59l-1.32,10.71c-.03,.29-.31,.49-.61,.45l-.67-.08c-.3-.04-.51-.3-.48-.59Z"/>
      <path class="cls-1" d="M357.63,83.5l1.4-10.7c.04-.29,.31-.49,.61-.45l3.47,.45c.3,.04,.51,.31,.47,.59l-.23,1.73c-.04,.29-.31,.49-.61,.45l-1.71-.22c-.3-.04-.57,.16-.61,.45l-.07,.55c-.04,.29,.18,.55,.47,.59l1.19,.16c.3,.04,.51,.31,.47,.59l-.22,1.71c-.04,.29-.31,.49-.61,.45l-1.19-.16c-.3-.04-.57,.16-.61,.45l-.11,.81c-.04,.29,.18,.55,.47,.59l1.72,.22c.3,.04,.51,.31,.47,.59l-.23,1.74c-.04,.29-.31,.49-.61,.45l-3.47-.45c-.3-.04-.51-.31-.47-.59Z"/>
      <path class="cls-1" d="M363.28,84.24l1.5-10.68c.04-.28,.32-.48,.61-.44l.66,.09c.3,.04,.51,.31,.47,.6l-1.11,7.9c-.04,.29,.17,.55,.47,.6l1.89,.27c.3,.04,.51,.31,.47,.59l-.24,1.74c-.04,.29-.32,.49-.61,.44l-3.63-.51c-.3-.04-.51-.31-.47-.6Z"/>
      <path class="cls-1" d="M368.7,84.87l3.9-10.33c.09-.21,.3-.35,.55-.31l.42,.06c.24,.04,.41,.23,.43,.46l.71,11.01c.01,.38-.27,.63-.66,.57l-.63-.09c-.24-.04-.41-.22-.43-.47l-.1-1.95c-.02-.26-.19-.42-.43-.46l-.91-.14c-.24-.04-.46,.07-.55,.31l-.67,1.83c-.09,.24-.3,.37-.55,.33l-.63-.09c-.38-.06-.59-.38-.46-.74Zm3.57-3.59c.28,.04,.44-.23,.48-.44,.15-1.02,.02-1.57-.19-1.6-.23-.03-.51,.45-.67,1.47-.05,.32,.1,.53,.38,.57Z"/>
      <path class="cls-1" d="M380.19,86.63l4.04-10.27c.09-.21,.31-.34,.55-.3l.42,.07c.24,.04,.41,.24,.43,.46l.56,11.02c0,.38-.28,.62-.66,.56l-.63-.1c-.24-.04-.41-.22-.42-.48l-.07-1.95c-.01-.26-.18-.42-.43-.46l-.91-.15c-.24-.04-.46,.06-.55,.3l-.69,1.82c-.09,.24-.31,.36-.55,.32l-.63-.1c-.38-.06-.58-.39-.45-.74Zm3.62-3.54c.28,.05,.45-.22,.48-.43,.17-1.02,.04-1.57-.17-1.6-.23-.04-.52,.45-.69,1.46-.05,.32,.09,.53,.37,.57Z"/>
      <path class="cls-1" d="M387.16,87.91l1.81-10.63c.05-.28,.33-.47,.63-.43l1.2,.2c.24,.04,.41,.24,.42,.47l.18,3.43c.02,.41,.35,.47,.44,.02l.64-3.13c.07-.3,.31-.44,.6-.39l.7,.12c.3,.05,.5,.32,.45,.61l-1.81,10.63c-.05,.28-.33,.47-.63,.42l-1.2-.2c-.24-.04-.41-.22-.43-.45l-.22-3.74c-.04-.5-.4-.51-.48-.03l-.58,3.4c-.05,.28-.33,.47-.63,.42l-.66-.11c-.3-.05-.5-.33-.45-.61Z"/>
      <path class="cls-1" d="M393.8,89.05l1.87-10.64c.05-.28,.31-.46,.61-.41l1.65,.27c2.19,.37,2.5,3.6,2.02,6.33-.49,2.78-1.89,5.73-4.08,5.34l-1.63-.29c-.3-.05-.5-.33-.45-.61Zm2.53-1.92c.9,.16,1.53-.76,1.9-2.82,.35-2.01,.08-3.13-.82-3.29-.23-.04-.45,.3-.53,.78l-.78,4.41c-.13,.72-.11,.86,.23,.92Z"/>
      <path class="cls-1" d="M400.22,90.18l1.92-10.61c.05-.28,.34-.47,.63-.42l2,.36c1.35,.25,1.73,2.24,1.44,3.87-.17,.93-.5,1.68-.87,2.21-.05,.06-.08,.12-.09,.19-.01,.07,0,.16,.03,.23,.17,.46,.34,1.13,.18,1.96l-.25,1.36c-.14,.8-.08,1.36-.12,1.58-.06,.32-.24,.64-.57,.58l-.76-.14c-.57-.1-.44-1.44-.26-2.45l.21-1.15c.05-.28-.15-.56-.45-.61l-.14-.02c-.3-.05-.58,.14-.63,.42l-.54,2.96c-.05,.28-.34,.47-.63,.42l-.66-.12c-.29-.05-.5-.33-.45-.61Zm3.45-5.87c.36,.07,.55-.19,.68-.91s.02-1.08-.33-1.14c-.31-.06-.59,.12-.65,.41l-.18,1.01c-.07,.37,.15,.56,.48,.62Z"/>
      <path class="cls-1" d="M405.83,91.06l4.25-10.18c.09-.21,.31-.34,.56-.29l.42,.08c.24,.05,.4,.25,.41,.47l.33,11.03c0,.38-.29,.62-.68,.55l-.62-.12c-.24-.04-.41-.23-.41-.49l-.04-1.95c0-.26-.17-.43-.41-.47l-.9-.17c-.24-.05-.46,.05-.56,.29l-.73,1.81c-.1,.24-.32,.35-.56,.31l-.63-.11c-.38-.07-.57-.4-.44-.75Zm3.69-3.46c.28,.05,.45-.21,.49-.43,.19-1.01,.07-1.57-.13-1.61-.23-.04-.53,.44-.72,1.45-.06,.32,.08,.53,.36,.58Z"/>
      <path class="cls-1" d="M412.79,92.48l1.99-10.62c.05-.28,.32-.46,.61-.4l1.65,.29c2.19,.39,2.46,3.63,1.95,6.35-.52,2.78-1.95,5.71-4.13,5.3l-1.63-.3c-.29-.06-.49-.33-.44-.62Zm2.54-1.9c.9,.17,1.54-.74,1.92-2.81,.38-2.01,.12-3.13-.78-3.29-.23-.04-.45,.29-.54,.78l-.83,4.41c-.13,.71-.12,.85,.22,.92Z"/>
      <path class="cls-1" d="M419.22,93.69l2-10.61c.05-.28,.34-.47,.63-.41l3.43,.65c.29,.06,.49,.33,.44,.62l-.32,1.71c-.05,.28-.34,.47-.63,.41l-1.7-.32c-.29-.06-.58,.13-.63,.41l-.1,.55c-.05,.28,.15,.56,.44,.62l1.18,.22c.29,.06,.49,.33,.44,.62l-.32,1.7c-.05,.28-.34,.47-.63,.41l-1.18-.22c-.29-.06-.58,.13-.63,.41l-.15,.8c-.05,.28,.15,.56,.44,.62l1.7,.32c.29,.06,.49,.33,.44,.62l-.33,1.73c-.05,.28-.34,.47-.64,.41l-3.43-.65c-.29-.06-.49-.33-.44-.62Z"/>
      <path class="cls-1" d="M629.27,218.64l1.75,10.9c.03,.22-.09,.45-.32,.54l-.4,.15c-.23,.09-.47,0-.6-.18l-6.09-9.2c-.2-.32-.08-.68,.29-.82l.59-.23c.23-.09,.47-.02,.61,.2l1.06,1.64c.14,.22,.37,.27,.6,.18l.86-.33c.23-.09,.36-.29,.32-.54l-.33-1.92c-.04-.26,.08-.47,.31-.56l.59-.23c.36-.14,.7,.04,.77,.41Zm-1.31,4.89c-.26,.1-.27,.42-.19,.62,.38,.96,.76,1.37,.96,1.29,.21-.08,.22-.65-.15-1.61-.12-.3-.35-.41-.61-.31Z"/>
      <path class="cls-1" d="M622.71,221l3.32,10.26c.09,.27-.07,.57-.36,.67l-1.93,.62c-1.31,.42-2.58-1.16-3.09-2.73-.29-.9-.35-1.72-.28-2.36,.01-.08,0-.14-.01-.21-.02-.06-.08-.13-.14-.19-.36-.33-.83-.83-1.09-1.64l-.43-1.32c-.25-.77-.57-1.24-.64-1.45-.1-.31-.09-.68,.23-.78l.74-.24c.55-.18,1.07,1.06,1.38,2.04l.36,1.11c.09,.27,.4,.42,.68,.33l.13-.04c.29-.09,.45-.39,.36-.67l-.93-2.86c-.09-.27,.07-.57,.36-.67l.64-.21c.29-.09,.59,.06,.68,.33Zm-.26,6.8c-.35,.11-.4,.43-.17,1.12,.22,.69,.5,.96,.83,.85,.3-.1,.47-.38,.38-.67l-.32-.98c-.11-.35-.4-.42-.72-.32Z"/>
      <path class="cls-1" d="M615.08,223.32l2.05,7.71c.08,.29,.38,.46,.67,.38l1.16-.31c.29-.08,.59,.09,.66,.37l.45,1.68c.07,.28-.1,.57-.39,.65l-5.08,1.35c-.29,.08-.59-.09-.66-.37l-.45-1.68c-.07-.28,.1-.57,.39-.65l1.16-.31c.29-.08,.47-.37,.39-.66l-2.05-7.71c-.07-.28,.1-.57,.39-.65l.65-.17c.29-.08,.59,.09,.66,.37Z"/>
      <path class="cls-1" d="M610.13,224.59l2.28,10.55c.06,.28-.13,.56-.42,.63l-.66,.14c-.29,.06-.58-.12-.65-.4l-.71-3.29c-.06-.28-.35-.46-.65-.4l-.66,.14c-.29,.06-.48,.35-.42,.63l.71,3.29c.06,.28-.13,.56-.42,.63l-.66,.14c-.29,.06-.59-.12-.65-.4l-2.28-10.55c-.06-.28,.13-.56,.42-.63l.66-.14c.29-.06,.59,.12,.65,.4l.75,3.47c.06,.28,.35,.46,.65,.4l.66-.14c.29-.06,.48-.35,.42-.63l-.75-3.47c-.06-.28,.13-.56,.42-.63l.66-.14c.29-.06,.59,.12,.65,.4Z"/>
      <path class="cls-1" d="M604.33,229.57l1.26,7c.05,.28-.15,.56-.45,.61l-.66,.12c-.29,.05-.58-.14-.63-.42l-1.22-6.8c-.15-.85-.42-1.83-.94-1.74s-.43,1.11-.28,1.96l1.22,6.8c.05,.28-.15,.56-.45,.61l-.66,.12c-.29,.05-.58-.14-.63-.42l-1.26-7c-.41-2.3-.23-4.49,1.55-4.81,1.77-.32,2.74,1.79,3.13,3.97Z"/>
      <path class="cls-1" d="M597.65,227.02l1.62,10.66c.04,.28-.16,.56-.46,.6l-2.01,.31c-1.36,.21-2.36-1.55-2.61-3.19-.14-.94-.07-1.75,.1-2.38,.02-.07,.03-.14,.02-.21-.01-.07-.06-.15-.1-.21-.31-.38-.68-.96-.81-1.79l-.21-1.37c-.12-.8-.36-1.31-.39-1.53-.05-.32,.02-.69,.35-.74l.77-.12c.58-.09,.88,1.22,1.04,2.24l.18,1.15c.04,.28,.32,.48,.62,.44l.14-.02c.3-.05,.51-.32,.46-.6l-.45-2.97c-.04-.28,.16-.56,.46-.6l.66-.1c.3-.05,.58,.15,.62,.44Zm-1.36,6.67c-.37,.06-.46,.36-.35,1.08,.11,.72,.33,1.03,.68,.97,.31-.05,.53-.3,.48-.6l-.16-1.02c-.06-.37-.32-.48-.65-.43Z"/>
      <path class="cls-1" d="M294.92,267.62l-.24,10.79c0,.29-.26,.52-.56,.51l-.67-.02c-.3,0-.54-.25-.54-.54l.18-7.98c0-.29-.24-.53-.54-.54l-1.91-.04c-.3,0-.54-.25-.54-.54l.04-1.76c0-.29,.26-.52,.56-.51l3.67,.08c.3,0,.54,.25,.54,.54Z"/>
      <path class="cls-1" d="M288.98,272.89c-.14,2.58-1.06,6.1-3.3,5.97-2.4-.14-2.66-3.92-2.52-6.32,.19-3.12,1.15-6.11,3.26-5.99,1.99,.12,2.74,3.21,2.55,6.34Zm-2.73-3.48c-.78-.05-1.24,1.81-1.33,3.27-.09,1.43,.17,3.36,.93,3.41,.85,.05,1.27-1.69,1.36-3.27,.08-1.25-.15-3.35-.96-3.41Z"/>
      <path class="cls-1" d="M282.29,267.04l-1.13,10.73c-.03,.29-.3,.5-.6,.46l-.67-.07c-.3-.03-.52-.29-.49-.58l.83-7.94c.03-.29-.19-.55-.49-.58l-1.9-.2c-.3-.03-.52-.29-.49-.58l.18-1.75c.03-.29,.3-.5,.6-.46l3.65,.38c.3,.03,.52,.29,.49,.58Z"/>
      <path class="cls-1" d="M275.9,271.77c-.36,2.56-1.58,5.99-3.8,5.66-2.37-.35-2.32-4.14-1.96-6.51,.46-3.09,1.67-5.99,3.76-5.68,1.97,.29,2.45,3.44,2,6.53Zm-2.41-3.71c-.77-.11-1.39,1.69-1.61,3.15-.21,1.42-.12,3.37,.63,3.48,.84,.12,1.41-1.57,1.64-3.14,.18-1.24,.14-3.35-.66-3.48Z"/>
      <path class="cls-1" d="M265.29,264.52l-.34,1.53c-.04,.17-.12,.3-.22,.4l-3.26,5.13c-.23,.36-.05,.79,.38,.88l.88,.19c.29,.07,.48,.35,.42,.63l-.38,1.72c-.06,.28-.36,.46-.65,.39l-3.38-.75c-.29-.07-.48-.35-.42-.63l.46-1.99c.04-.16,.1-.31,.19-.43l3.11-4.64c.24-.36,.05-.8-.4-.9l-1.02-.23c-.29-.07-.48-.35-.42-.63l.38-1.72c.06-.28,.36-.46,.65-.39l3.58,.79c.29,.07,.48,.35,.42,.63Z"/>
      <path class="cls-1" d="M258.41,268.51c-.64,2.51-2.22,5.78-4.39,5.21-2.32-.61-1.85-4.36-1.24-6.68,.79-3.03,2.31-5.77,4.36-5.24,1.93,.5,2.06,3.68,1.27,6.71Zm-2-3.94c-.75-.2-1.57,1.53-1.94,2.95-.36,1.39-.49,3.33,.25,3.52,.82,.21,1.57-1.41,1.97-2.94,.32-1.21,.5-3.31-.28-3.53Z"/>
      <path class="cls-1" d="M251.9,264.99l-2.06,6.82c-.08,.27-.39,.43-.68,.34l-.64-.19c-.29-.09-.46-.38-.37-.66l2-6.62c.25-.83,.46-1.82-.05-1.98-.51-.15-.88,.79-1.13,1.62l-2,6.62c-.08,.27-.39,.43-.68,.34l-.64-.2c-.29-.09-.46-.38-.37-.66l2.06-6.82c.68-2.23,1.83-4.11,3.57-3.58,1.72,.52,1.63,2.84,.99,4.96Z"/>
      <path class="cls-1" d="M247.46,259.95l-5.69,9.46c-.12,.19-.36,.29-.59,.21l-.4-.14c-.23-.08-.36-.3-.34-.53l1.28-10.97c.05-.38,.38-.57,.75-.44l.6,.2c.23,.08,.37,.29,.34,.54l-.25,1.93c-.03,.26,.11,.45,.34,.53l.87,.3c.23,.08,.46,.01,.59-.21l.98-1.68c.13-.22,.36-.3,.6-.23l.6,.2c.37,.13,.51,.48,.32,.81Zm-4.15,2.89c-.27-.09-.48,.14-.55,.35-.33,.98-.3,1.54-.1,1.61,.22,.07,.59-.35,.92-1.33,.1-.3,0-.54-.27-.63Z"/>
      <path class="cls-1" d="M234.57,270.11c-.1,.27-.41,.41-.7,.3l-.63-.23c-.28-.1-.43-.41-.33-.68l.37-1c.1-.27,.41-.41,.7-.3l.63,.23c.28,.1,.43,.41,.33,.68l-.37,1Zm6.11-12.67l-3.75,10.12c-.1,.27-.41,.41-.7,.3l-.63-.23c-.28-.1-.43-.41-.33-.68l3.75-10.12c.1-.27,.41-.41,.7-.3l.63,.23c.28,.1,.43,.41,.33,.68Zm-3.63,13.59c-.1,.27-.41,.41-.7,.3l-.63-.23c-.28-.1-.43-.41-.33-.68l.37-1c.1-.27,.41-.41,.7-.3l.63,.23c.28,.1,.43,.41,.33,.68l-.37,1Z"/>
      <path class="cls-1" d="M264.94,141.94c.57-2.52,2.07-5.84,4.25-5.33,2.34,.54,1.97,4.31,1.42,6.65-.71,3.05-2.15,5.84-4.22,5.36-1.94-.45-2.16-3.63-1.46-6.68Zm2.1,3.89c.76,.18,1.53-1.57,1.86-3.01,.33-1.4,.4-3.35-.34-3.52-.83-.19-1.53,1.45-1.89,3-.28,1.22-.41,3.32,.38,3.52Z"/>
      <path class="cls-1" d="M270.91,148.84l2.19-10.57c.06-.28,.35-.46,.64-.4l.66,.14c.29,.06,.49,.34,.43,.62l-.44,2.12c-.05,.25,.32,.36,.51,.14l1.88-2.1c.12-.13,.3-.23,.49-.19l.88,.18c.28,.06,.49,.52,.32,.74l-3.38,3.86c-.07,.07-.07,.18-.05,.27,1.08,5.59,1.24,6.02,1.26,6.18,.06,.34-.27,.6-.56,.54l-.85-.18c-.21-.04-.34-.21-.38-.41l-.77-3.23c-.09-.42-.44-.49-.52-.07l-.56,2.72c-.06,.28-.35,.46-.64,.4l-.66-.14c-.29-.06-.49-.34-.43-.62Z"/>
      <path class="cls-1" d="M277.22,150l4.25-10.18c.09-.21,.31-.34,.56-.29l.42,.08c.24,.05,.4,.25,.41,.47l.33,11.03c0,.38-.29,.62-.68,.55l-.62-.12c-.24-.04-.41-.23-.41-.49l-.04-1.95c0-.26-.17-.43-.41-.47l-.9-.17c-.24-.05-.46,.05-.56,.29l-.73,1.81c-.1,.24-.32,.35-.56,.31l-.63-.11c-.38-.07-.57-.4-.44-.75Zm3.69-3.46c.28,.05,.45-.21,.49-.43,.19-1.01,.07-1.57-.13-1.61-.23-.04-.53,.44-.72,1.45-.06,.32,.08,.53,.36,.58Z"/>
      <path class="cls-1" d="M285.53,151.63l.72-4.34c.02-.12,.02-.24,0-.36l-.78-6.05c-.06-.42,.26-.69,.68-.62l.57,.1c.23,.04,.41,.22,.43,.43l.34,2.8c.07,.58,.28,.59,.52,.09l1.23-2.54c.09-.19,.32-.31,.55-.27l.57,.1c.42,.07,.64,.45,.45,.81l-2.72,5.46c-.05,.11-.09,.23-.11,.34l-.72,4.34c-.05,.28-.33,.48-.63,.43l-.66-.11c-.3-.05-.5-.32-.45-.61Z"/>
      <path class="cls-1" d="M290.56,147.03c.4-2.66,1.73-6.02,3.98-5.68,1.45,.22,2.5,1.66,2.11,4.27-.05,.3-.19,.54-.54,.48l-.84-.13c-.33-.05-.42-.27-.39-.62,.04-.4-.21-1.35-.73-1.43-.82-.12-1.57,1.87-1.79,3.37-.21,1.4-.28,3.53,.73,3.68,.47,.07,.77-.28,.95-.76,.11-.24,.34-.38,.62-.32l.76,.15c.31,.06,.54,.34,.44,.66-.62,1.89-1.78,3.05-3.16,2.84-2.11-.32-2.59-3.57-2.14-6.53Z"/>
      <path class="cls-1" d="M296.59,153.34l1.46-10.69c.04-.29,.32-.49,.61-.45l3.46,.47c.3,.04,.51,.31,.47,.59l-.24,1.73c-.04,.29-.32,.49-.61,.45l-1.71-.23c-.3-.04-.57,.16-.61,.45l-.08,.55c-.04,.29,.17,.55,.47,.59l1.19,.16c.3,.04,.51,.31,.47,.59l-.23,1.71c-.04,.28-.32,.49-.61,.44l-1.19-.16c-.3-.04-.57,.16-.61,.45l-.11,.8c-.04,.28,.17,.55,.47,.59l1.71,.23c.3,.04,.51,.31,.47,.59l-.24,1.74c-.04,.29-.32,.49-.61,.45l-3.46-.47c-.3-.04-.51-.31-.47-.59Z"/>
      <path class="cls-1" d="M302.63,148.75c.33-2.67,1.57-6.06,3.83-5.78,1.45,.18,2.54,1.6,2.21,4.21-.04,.3-.17,.54-.52,.5l-.84-.11c-.33-.04-.43-.26-.4-.61,.03-.41-.24-1.34-.77-1.41-.82-.1-1.52,1.91-1.71,3.42-.18,1.41-.19,3.54,.82,3.67,.47,.06,.77-.3,.93-.79,.1-.24,.33-.38,.61-.33l.77,.13c.31,.06,.55,.32,.45,.65-.58,1.91-1.7,3.09-3.09,2.92-2.12-.26-2.68-3.5-2.31-6.48Z"/>
      <path class="cls-1" d="M309.01,154.94l1.24-10.72c.03-.29,.31-.49,.6-.46l.67,.08c.3,.03,.52,.3,.48,.58l-1.24,10.72c-.03,.29-.31,.49-.6,.46l-.67-.08c-.3-.03-.52-.3-.48-.58Z"/>
      <path class="cls-1" d="M309.94,211.93l-4.6,9.75c-.12,.26-.45,.37-.72,.24l-1.1-.52c-.22-.11-.33-.34-.28-.56l.86-4.81c.05-.22,0-.43-.15-.5s-.34,.02-.49,.2l-3.16,3.72c-.14,.18-.39,.25-.61,.14l-1.1-.52c-.27-.13-.39-.45-.27-.71l4.6-9.75c.12-.26,.45-.37,.72-.24l.61,.29c.27,.13,.39,.45,.27,.71l-1.47,3.12c-.21,.44,.32,.81,.62,.35l2.04-3.08c.13-.18,.38-.23,.61-.13l.7,.33c.22,.11,.35,.33,.29,.55l-1.08,3.53c-.15,.47,.45,.7,.66,.25l1.47-3.12c.12-.26,.45-.37,.72-.24l.61,.29c.27,.13,.39,.45,.27,.71Z"/>
      <path class="cls-1" d="M302.01,208.3l-7.04,8.5c-.15,.17-.4,.23-.62,.12l-.38-.2c-.22-.11-.31-.35-.26-.57l2.91-10.65c.11-.36,.46-.5,.81-.32l.56,.29c.22,.11,.32,.34,.25,.59l-.54,1.87c-.07,.25,.04,.46,.26,.57l.81,.42c.22,.11,.45,.08,.62-.12l1.22-1.52c.16-.2,.41-.25,.63-.13l.56,.29c.34,.18,.43,.55,.2,.85Zm-4.54,2.23c-.25-.13-.49,.07-.59,.26-.47,.92-.53,1.48-.34,1.58,.2,.11,.63-.26,1.11-1.18,.15-.29,.08-.53-.17-.66Z"/>
      <path class="cls-1" d="M293.3,209.64c-1.42,2.57-3.76,4.97-5.69,3.91-1.36-.75-1.42-2.76-.6-4.54,.14-.29,.46-.39,.77-.22l.66,.37c.22,.12,.33,.36,.27,.6-.13,.56-.09,1.38,.15,1.51,.77,.43,2.1-1.18,2.84-2.51,.75-1.36,1.35-3.29,.6-3.71-.4-.22-1.09,.36-1.56,.96-.07,.08-.06,.22,.05,.28l.4,.22c.26,.15,.38,.48,.24,.73l-.47,.86c-.14,.25-.49,.33-.75,.18l-1.89-1.04c-.26-.15-.38-.48-.24-.73l.27-.49c1.27-2.29,3.4-4.25,5.21-3.25,2.01,1.11,1.01,4.56-.27,6.87Z"/>
      <path class="cls-1" d="M289.69,201.49l-5.4,9.36c-.14,.25-.45,.32-.71,.18l-1.46-.82c-1.94-1.1-1.12-4.24,.27-6.64,1.41-2.45,3.73-4.74,5.66-3.63l1.44,.83c.26,.15,.36,.48,.21,.73Zm-3.03,.95c-.79-.46-1.7,.19-2.75,2.01-1.02,1.77-1.15,2.91-.35,3.37,.2,.11,.52-.13,.77-.55l2.24-3.88c.36-.63,.4-.77,.09-.94Z"/>
      <path class="cls-1" d="M284.32,198.54l-7.51,8.09c-.16,.16-.41,.21-.62,.08l-.36-.22c-.21-.13-.29-.37-.23-.59l3.5-10.47c.13-.36,.49-.48,.82-.28l.55,.32c.21,.13,.3,.36,.22,.6l-.64,1.84c-.08,.25,.01,.46,.23,.59l.79,.47c.21,.13,.45,.11,.62-.08l1.31-1.44c.17-.19,.42-.22,.63-.1l.55,.32c.33,.2,.4,.57,.15,.86Zm-4.66,1.97c-.24-.14-.5,.04-.61,.23-.53,.89-.61,1.45-.43,1.55,.2,.12,.65-.23,1.17-1.11,.16-.28,.11-.53-.14-.67Z"/>
      <path class="cls-1" d="M278.28,194.79l-5.56,9.24c-.15,.25-.48,.32-.74,.17l-.57-.35c-.26-.15-.35-.48-.2-.73l4.12-6.84c.15-.25,.06-.58-.2-.73l-1.63-.98c-.26-.16-.35-.49-.2-.73l.91-1.51c.15-.25,.48-.32,.74-.17l3.15,1.89c.26,.16,.35,.49,.2,.73Z"/>
      <path class="cls-1" d="M273.3,191.79l-5.57,9.23c-.15,.25-.48,.32-.74,.17l-2.99-1.81c-.26-.16-.35-.49-.2-.73l.9-1.49c.15-.25,.48-.32,.74-.17l1.48,.89c.26,.16,.59,.08,.74-.17l.29-.48c.15-.25,.06-.58-.2-.73l-1.03-.62c-.26-.16-.35-.49-.2-.73l.89-1.48c.15-.25,.48-.32,.74-.17l1.03,.62c.26,.16,.59,.08,.74-.17l.42-.69c.15-.25,.06-.58-.2-.73l-1.48-.89c-.26-.16-.35-.49-.2-.73l.91-1.5c.15-.25,.48-.32,.74-.17l2.99,1.81c.26,.16,.35,.49,.2,.73Z"/>
      <path class="cls-1" d="M268.4,188.83l-5.55,9.25c-.15,.25-.48,.32-.74,.17l-1.04-.63c-.21-.13-.29-.37-.22-.59l1.07-3.26c.13-.39-.15-.56-.4-.18l-1.73,2.69c-.17,.25-.45,.3-.71,.15l-.61-.36c-.26-.15-.35-.48-.2-.73l5.55-9.25c.15-.25,.48-.32,.74-.17l1.05,.63c.21,.13,.3,.36,.23,.57l-1.15,3.57c-.15,.48,.18,.62,.43,.2l1.77-2.96c.15-.25,.48-.32,.74-.17l.58,.34c.26,.15,.35,.48,.2,.73Z"/>
      <path class="cls-1" d="M262.88,185.68l-7.47,8.13c-.16,.16-.41,.21-.62,.09l-.37-.21c-.21-.12-.29-.37-.23-.59l3.45-10.49c.13-.36,.49-.48,.82-.28l.55,.32c.21,.13,.3,.36,.22,.6l-.63,1.85c-.08,.25,.02,.46,.23,.59l.79,.46c.21,.13,.45,.11,.62-.09l1.3-1.45c.17-.19,.42-.23,.63-.1l.55,.32c.34,.2,.4,.57,.15,.86Zm-4.65,2c-.24-.14-.5,.04-.61,.23-.52,.89-.6,1.45-.42,1.56,.2,.12,.65-.23,1.17-1.12,.16-.28,.1-.53-.14-.67Z"/>
      <path class="cls-1" d="M252.53,179.74l-5.02,9.16c-.19,.34-.61,.45-.97,.26l-1.32-.72c-1.21-.66-.95-2.56-.15-4.03,.39-.71,.82-1.25,1.35-1.58,.14-.1,.22-.25,.21-.42-.03-.67,.15-1.42,.62-2.26,.85-1.56,2.43-2.75,3.66-2.08l1.32,.72c.36,.2,.49,.61,.3,.96Zm-5.02,4.86c-.34-.19-.68,.03-.9,.43-.29,.53-.19,.86,.1,1.02,.14,.08,.51-.13,.74-.54,.23-.42,.21-.83,.06-.91Zm2.08-3.87c-.37-.2-.72,.03-.96,.47-.32,.59-.21,.94,.1,1.11,.17,.09,.55-.12,.8-.58s.24-.91,.07-1Z"/>
      <path class="cls-1" d="M247.74,177.08l-7.01,8.53c-.15,.17-.4,.23-.62,.12l-.38-.19c-.22-.11-.32-.35-.26-.57l2.86-10.66c.11-.36,.46-.51,.8-.33l.56,.29c.22,.11,.32,.34,.25,.59l-.53,1.88c-.07,.25,.04,.46,.26,.57l.82,.42c.22,.11,.45,.08,.62-.12l1.22-1.52c.16-.2,.41-.25,.63-.14l.56,.29c.35,.18,.43,.55,.2,.84Zm-4.53,2.25c-.25-.13-.49,.07-.59,.27-.47,.92-.52,1.48-.34,1.58,.2,.11,.63-.26,1.1-1.18,.15-.29,.08-.53-.18-.66Z"/>
      <path class="cls-1" d="M239.99,173.02l-1.88,3.97c-.05,.11-.09,.22-.1,.34l-.9,6.03c-.06,.42-.44,.6-.82,.42l-.53-.25c-.21-.1-.33-.33-.29-.53l.44-2.78c.1-.57-.1-.65-.48-.23l-1.88,2.1c-.14,.16-.39,.21-.6,.11l-.53-.25c-.38-.18-.49-.61-.21-.91l4.11-4.51c.08-.09,.15-.19,.2-.3l1.88-3.97c.12-.26,.45-.37,.72-.24l.61,.29c.27,.13,.39,.45,.27,.71Z"/>
    </g>
  </g>
</svg>