<?xml version="1.0" encoding="UTF-8"?>
<svg id="_레이어_2" data-name="레이어 2" xmlns="http://www.w3.org/2000/svg" viewBox="0 0 1471.52 806.07">
  <defs>
    <style>
      .cls-1 {
        fill: none;
        stroke: #968a77;
        stroke-miterlimit: 10;
        stroke-width: 2.16px;
      }
    </style>
  </defs>
  <g id="_레이어_1-2" data-name="레이어 1">
    <path class="cls-1" d="M.18,18.48C50.91,10.1,101.92,2.38,153.32,1.24c41.86-.93,83.68,2.5,125.41,5.87,88.88,7.17,177.95,14.04,267.1,12.24,34.93-.71,69.81-2.74,104.72-4.01,88.35-3.2,176.87-1.43,265.03,5.29,71.94,5.48,138.33,31.79,185.01,89.18,13,15.98,24.04,33.75,39.21,47.67,15.55,14.26,34.7,23.81,53.58,33.18,25.11,12.45,51.36,25.19,79.37,25.12,45.22-.12,101.55-12.05,141.67,14.61,25.39,16.87,42.52,44.45,50.89,73.83,7.07,24.82,7.99,52.81-4.71,75.26-8.49,15.02-22.29,26.28-36.66,35.77-26.44,17.46-55.96,30.19-86.77,37.43-61.41,14.42-129.21,7.76-183.91,39.28-41.14,23.71-70.08,40.9-118.49,48.43-43.58,6.78-94.1,10.68-125.21,46.13-47.89,54.58-19.51,152.85-74.6,200.14-29,24.89-76.55,24.33-104.95-1.23-21.36-19.22-30.87-48.49-50.23-69.72-22.76-24.97-56.7-36.34-89.71-43.56-96.09-21.02-202.61-17.31-282.76-74.34-43.74-31.13-74.75-77.54-118.33-108.89-31.4-22.59-68.13-36.5-101.28-56.42-33.15-19.92-64.26-48.5-72.81-86.22-5.42-23.9-1.2-48.84-2.76-73.3-2.55-39.92-19.7-83.39,1.19-117.49,19.19-31.33,61.34-38.28,98.08-38.49,63.92-.37,127.43,9.96,191.31,12.29,110.63,4.04,221.05-15.95,331.7-12.62,67.21,2.02,136,13.34,193.64,47.95,35.66,21.41,66.5,51.39,105.28,66.43,38.64,14.99,81.33,13.69,122.61,17.42,33.73,3.05,71.55,10.73,99.18,31.5,38,28.57,34.45,71.59-4.29,98.7-25.78,18.04-60.26,27.81-91.05,32.9-63.68,10.51-134.62,8.53-192.63,43.38-53.53,32.16-92.48,89.41-155.71,104.54-44.68,10.69-94.66-5.25-124.99-39.88-10.81-12.34-19.74-27.2-34.21-34.88-15.07-8.01-33.09-6.64-50.14-6.8-110.28-1.05-205.77-72.82-292.42-141.3-8.85-7-17.96-14.3-23.21-24.31-11.66-22.23-.17-50.48,17.95-67.83,27.88-26.71,78.84-28.93,117.31-26.63,38.47,2.3,65.52,7.81,102.43,18.92,52.66,15.86,107.6,21.2,162.14,26.2,41.54,3.81,84.72,1.71,125.27,13.11,15.39,4.33,56.69,25.99,62.73,40.8,9.74,23.9,13.33,65.3-8.49,81.06-8.71,6.29-57.22,16.09-67.93,16.86-53.1,3.82-107.11-19.32-155.62-38.1-51.08-19.77-98.45-57.8-148.49-80.06"/>
  </g>
</svg>