<?xml version="1.0" encoding="UTF-8"?>
<svg id="_레이어_2" data-name="레이어 2" xmlns="http://www.w3.org/2000/svg" viewBox="0 0 844.84 485.86">
  <defs>
    <style>
      .cls-1 {
        fill: #968a77;
      }
    </style>
  </defs>
  <g id="_레이어_1-2" data-name="레이어 1">
    <g>
      <circle class="cls-1" cx="507.9" cy="267.3" r="13.46"/>
      <circle class="cls-1" cx="518.72" cy="263.75" r="13.02"/>
      <circle class="cls-1" cx="529.54" cy="260.19" r="13.61"/>
      <circle class="cls-1" cx="540.52" cy="257.34" r="11.06"/>
      <circle class="cls-1" cx="551.8" cy="255.74" r="14.47"/>
      <circle class="cls-1" cx="563.07" cy="254.14" r="14.66"/>
      <circle class="cls-1" cx="574.36" cy="252.64" r="14.58"/>
      <circle class="cls-1" cx="585.67" cy="251.26" r="11.49"/>
      <circle class="cls-1" cx="596.97" cy="249.88" r="10.17"/>
      <circle class="cls-1" cx="608.11" cy="247.63" r="12.74"/>
      <circle class="cls-1" cx="619.12" cy="244.72" r="14.35"/>
      <circle class="cls-1" cx="630.13" cy="241.8" r="14.62"/>
      <circle class="cls-1" cx="639.98" cy="236.28" r="14.38"/>
      <circle class="cls-1" cx="649.54" cy="230.08" r="12.7"/>
      <circle class="cls-1" cx="658.94" cy="223.72" r="13.81"/>
      <circle class="cls-1" cx="665.87" cy="214.69" r="14.12"/>
      <circle class="cls-1" cx="669.84" cy="204.06" r="13.95"/>
      <circle class="cls-1" cx="669.15" cy="192.89" r="13.1"/>
      <circle class="cls-1" cx="663.01" cy="183.72" r="14.7"/>
      <circle class="cls-1" cx="653.75" cy="177.37" r="14.49"/>
      <circle class="cls-1" cx="643.32" cy="172.86" r="14.09"/>
      <circle class="cls-1" cx="632.61" cy="168.98" r="9.98"/>
      <circle class="cls-1" cx="621.9" cy="165.09" r="15.04"/>
      <circle class="cls-1" cx="611.2" cy="161.21" r="10.84"/>
      <circle class="cls-1" cx="600.42" cy="157.54" r="10.19"/>
      <circle class="cls-1" cx="589.55" cy="154.16" r="11.63"/>
      <circle class="cls-1" cx="578.67" cy="150.78" r="13.69"/>
      <circle class="cls-1" cx="567.8" cy="147.4" r="15.41"/>
      <circle class="cls-1" cx="556.98" cy="143.85" r="12.01"/>
      <circle class="cls-1" cx="546.32" cy="139.83" r="12.71"/>
      <circle class="cls-1" cx="535.67" cy="135.81" r="14.75"/>
      <circle class="cls-1" cx="525.01" cy="131.79" r="13.65"/>
      <circle class="cls-1" cx="514.39" cy="127.69" r="13.61"/>
      <circle class="cls-1" cx="504.01" cy="122.99" r="14.71"/>
      <circle class="cls-1" cx="493.64" cy="118.3" r="13.83"/>
      <circle class="cls-1" cx="483.26" cy="113.6" r="11.78"/>
      <circle class="cls-1" cx="472.83" cy="109.06" r="15.39"/>
      <circle class="cls-1" cx="461.78" cy="106.31" r="9.84"/>
      <circle class="cls-1" cx="450.73" cy="103.56" r="15.18"/>
      <circle class="cls-1" cx="439.68" cy="100.82" r="13.26"/>
      <circle class="cls-1" cx="428.58" cy="98.31" r="10.38"/>
      <circle class="cls-1" cx="417.36" cy="96.33" r="13.07"/>
      <circle class="cls-1" cx="406.14" cy="94.35" r="9.89"/>
      <circle class="cls-1" cx="394.93" cy="92.37" r="13.02"/>
      <circle class="cls-1" cx="383.71" cy="90.39" r="12.6"/>
      <circle class="cls-1" cx="372.5" cy="88.41" r="14.51"/>
      <circle class="cls-1" cx="361.27" cy="86.58" r="11.84"/>
      <circle class="cls-1" cx="349.9" cy="85.86" r="12.19"/>
      <circle class="cls-1" cx="338.53" cy="85.14" r="11.54"/>
      <circle class="cls-1" cx="327.17" cy="84.42" r="14.84"/>
      <circle class="cls-1" cx="315.8" cy="83.7" r="15.2"/>
      <circle class="cls-1" cx="304.44" cy="82.98" r="14.62"/>
      <circle class="cls-1" cx="293.07" cy="82.26" r="13.36"/>
      <circle class="cls-1" cx="281.72" cy="83.11" r="12.45"/>
      <circle class="cls-1" cx="270.37" cy="84.05" r="13.08"/>
      <circle class="cls-1" cx="259.02" cy="84.99" r="12.63"/>
      <circle class="cls-1" cx="247.67" cy="85.93" r="12.74"/>
      <circle class="cls-1" cx="236.32" cy="86.84" r="15.15"/>
      <circle class="cls-1" cx="224.95" cy="87.46" r="10"/>
      <circle class="cls-1" cx="213.58" cy="88.08" r="13.33"/>
      <circle class="cls-1" cx="202.21" cy="88.7" r="10.19"/>
      <circle class="cls-1" cx="190.83" cy="89.33" r="12.59"/>
      <circle class="cls-1" cx="179.47" cy="89.4" r="11.76"/>
      <circle class="cls-1" cx="168.14" cy="88.28" r="15.1"/>
      <circle class="cls-1" cx="156.81" cy="87.17" r="13.38"/>
      <circle class="cls-1" cx="145.47" cy="86.05" r="13.41"/>
      <circle class="cls-1" cx="134.14" cy="84.94" r="13.84"/>
      <circle class="cls-1" cx="122.81" cy="83.81" r="11.08"/>
      <circle class="cls-1" cx="111.47" cy="82.67" r="12.84"/>
      <circle class="cls-1" cx="100.14" cy="81.54" r="13.12"/>
      <circle class="cls-1" cx="88.81" cy="80.4" r="15.36"/>
      <circle class="cls-1" cx="77.46" cy="79.98" r="14.2"/>
      <circle class="cls-1" cx="66.09" cy="80.6" r="12.08"/>
      <circle class="cls-1" cx="54.95" cy="82.72" r="12.16"/>
      <circle class="cls-1" cx="43.93" cy="85.6" r="14.45"/>
      <circle class="cls-1" cx="34.14" cy="91.34" r="15"/>
      <circle class="cls-1" cx="25.39" cy="98.28" r="13.03"/>
      <circle class="cls-1" cx="19.19" cy="107.83" r="12.96"/>
      <circle class="cls-1" cx="16.17" cy="118.51" r="10.4"/>
      <circle class="cls-1" cx="14.99" cy="129.84" r="14.99"/>
      <circle class="cls-1" cx="16.57" cy="141.09" r="11.35"/>
      <circle class="cls-1" cx="18.33" cy="152.34" r="10.37"/>
      <circle class="cls-1" cx="19.95" cy="163.62" r="12.09"/>
      <circle class="cls-1" cx="20.8" cy="174.93" r="15.08"/>
      <circle class="cls-1" cx="20.43" cy="186.32" r="13.03"/>
      <circle class="cls-1" cx="20.41" cy="197.7" r="14.06"/>
      <circle class="cls-1" cx="21.55" cy="208.91" r="11.09"/>
      <circle class="cls-1" cx="25.23" cy="219.69" r="14.63"/>
      <circle class="cls-1" cx="29.77" cy="229.99" r="14.04"/>
      <circle class="cls-1" cx="36.89" cy="238.88" r="14.6"/>
      <circle class="cls-1" cx="44.34" cy="247.43" r="13.9"/>
      <circle class="cls-1" cx="53.35" cy="254.4" r="11.44"/>
      <circle class="cls-1" cx="62.45" cy="261.23" r="10.84"/>
      <circle class="cls-1" cx="72.42" cy="266.72" r="10.66"/>
      <circle class="cls-1" cx="82.4" cy="272.21" r="14.71"/>
      <circle class="cls-1" cx="92.37" cy="277.71" r="10.47"/>
      <circle class="cls-1" cx="102.08" cy="283.66" r="11.24"/>
      <circle class="cls-1" cx="111.79" cy="289.62" r="13.86"/>
      <circle class="cls-1" cx="121.5" cy="295.57" r="11.96"/>
      <circle class="cls-1" cx="129.76" cy="303.38" r="12.07"/>
      <circle class="cls-1" cx="137.92" cy="311.33" r="11.81"/>
      <circle class="cls-1" cx="146.07" cy="319.28" r="13.36"/>
      <circle class="cls-1" cx="154.23" cy="327.23" r="12.21"/>
      <circle class="cls-1" cx="162.4" cy="335.16" r="11.58"/>
      <circle class="cls-1" cx="170.57" cy="343.1" r="10.94"/>
      <circle class="cls-1" cx="178.74" cy="351.03" r="10.46"/>
      <circle class="cls-1" cx="187.95" cy="357.57" r="13.29"/>
      <circle class="cls-1" cx="197.9" cy="363.11" r="10.52"/>
      <circle class="cls-1" cx="207.85" cy="368.64" r="12.81"/>
      <circle class="cls-1" cx="218.12" cy="373.43" r="14.76"/>
      <circle class="cls-1" cx="229.05" cy="376.6" r="12.27"/>
      <circle class="cls-1" cx="239.99" cy="379.77" r="13.9"/>
      <circle class="cls-1" cx="250.94" cy="382.88" r="10.21"/>
      <circle class="cls-1" cx="262.17" cy="384.79" r="11.11"/>
      <circle class="cls-1" cx="273.4" cy="386.7" r="10.31"/>
      <circle class="cls-1" cx="284.63" cy="388.61" r="11.83"/>
      <circle class="cls-1" cx="295.87" cy="390.45" r="11.88"/>
      <circle class="cls-1" cx="307.11" cy="392.26" r="14.25"/>
      <circle class="cls-1" cx="318.35" cy="394.07" r="10.47"/>
      <circle class="cls-1" cx="329.52" cy="396.24" r="12.19"/>
      <circle class="cls-1" cx="340.55" cy="399.1" r="14.09"/>
      <circle class="cls-1" cx="351.57" cy="401.96" r="15.36"/>
      <circle class="cls-1" cx="362.59" cy="404.83" r="14.12"/>
      <circle class="cls-1" cx="373.08" cy="409.27" r="13.07"/>
      <circle class="cls-1" cx="382.74" cy="415.18" r="12.52"/>
      <circle class="cls-1" cx="390.99" cy="422.79" r="13.23"/>
      <circle class="cls-1" cx="397.43" cy="432.19" r="10.98"/>
      <circle class="cls-1" cx="403.85" cy="441.6" r="12.28"/>
      <circle class="cls-1" cx="410.16" cy="451.07" r="12.87"/>
      <circle class="cls-1" cx="416.48" cy="460.55" r="12.02"/>
      <circle class="cls-1" cx="425.96" cy="466.67" r="12.58"/>
      <circle class="cls-1" cx="435.78" cy="472.44" r="13.01"/>
      <circle class="cls-1" cx="447.13" cy="472.99" r="12.87"/>
      <circle class="cls-1" cx="458.45" cy="473.13" r="11.05"/>
      <circle class="cls-1" cx="468.68" cy="468.13" r="14.84"/>
      <circle class="cls-1" cx="478.41" cy="462.54" r="9.85"/>
      <circle class="cls-1" cx="484.91" cy="453.19" r="10.78"/>
      <circle class="cls-1" cx="491.33" cy="443.8" r="13.8"/>
      <circle class="cls-1" cx="494.38" cy="432.83" r="13.78"/>
      <circle class="cls-1" cx="497.43" cy="421.85" r="11.28"/>
      <circle class="cls-1" cx="499.46" cy="410.66" r="12.01"/>
      <circle class="cls-1" cx="501.25" cy="399.41" r="12.6"/>
      <circle class="cls-1" cx="503.47" cy="388.25" r="10.19"/>
      <circle class="cls-1" cx="506.11" cy="377.17" r="15.11"/>
      <circle class="cls-1" cx="509.45" cy="366.37" r="14.56"/>
      <circle class="cls-1" cx="515.09" cy="356.48" r="12.83"/>
      <circle class="cls-1" cx="520.99" cy="346.81" r="15.2"/>
      <circle class="cls-1" cx="530.21" cy="340.13" r="10.06"/>
      <circle class="cls-1" cx="539.6" cy="333.78" r="10.7"/>
      <circle class="cls-1" cx="550.48" cy="330.42" r="12.22"/>
      <circle class="cls-1" cx="561.4" cy="327.23" r="14.04"/>
      <circle class="cls-1" cx="572.65" cy="325.48" r="11.42"/>
      <circle class="cls-1" cx="583.91" cy="323.72" r="13.81"/>
      <circle class="cls-1" cx="595.13" cy="321.76" r="10.14"/>
      <circle class="cls-1" cx="606.34" cy="319.8" r="15.32"/>
      <circle class="cls-1" cx="617.09" cy="316.08" r="11.03"/>
      <circle class="cls-1" cx="627.79" cy="312.17" r="14.5"/>
      <circle class="cls-1" cx="637.47" cy="306.25" r="11.79"/>
      <circle class="cls-1" cx="646.98" cy="299.98" r="12.09"/>
      <circle class="cls-1" cx="656.75" cy="294.24" r="14.2"/>
      <circle class="cls-1" cx="667.43" cy="290.28" r="12.61"/>
      <circle class="cls-1" cx="678.11" cy="286.33" r="9.99"/>
      <circle class="cls-1" cx="688.91" cy="282.83" r="13.24"/>
      <circle class="cls-1" cx="700.18" cy="281.22" r="14.52"/>
      <circle class="cls-1" cx="711.46" cy="279.61" r="11.16"/>
      <circle class="cls-1" cx="722.73" cy="277.99" r="13.19"/>
      <circle class="cls-1" cx="733.98" cy="276.22" r="15.23"/>
      <circle class="cls-1" cx="745.23" cy="274.45" r="13.07"/>
      <circle class="cls-1" cx="756.48" cy="272.69" r="13.07"/>
      <circle class="cls-1" cx="767.26" cy="269.02" r="11.35"/>
      <circle class="cls-1" cx="778.05" cy="265.36" r="10.37"/>
      <circle class="cls-1" cx="788.27" cy="260.42" r="13.71"/>
      <circle class="cls-1" cx="798.22" cy="254.89" r="9.84"/>
      <circle class="cls-1" cx="807.82" cy="248.82" r="14.08"/>
      <circle class="cls-1" cx="816.61" cy="241.61" r="10.24"/>
      <circle class="cls-1" cx="823.64" cy="232.66" r="12.84"/>
      <circle class="cls-1" cx="827.33" cy="222.05" r="13.47"/>
      <circle class="cls-1" cx="830.18" cy="211.02" r="14.66"/>
      <circle class="cls-1" cx="829.19" cy="199.75" r="11.08"/>
      <circle class="cls-1" cx="827.75" cy="188.46" r="14.91"/>
      <circle class="cls-1" cx="823.29" cy="178" r="11.87"/>
      <circle class="cls-1" cx="818.66" cy="167.6" r="14.15"/>
      <circle class="cls-1" cx="811.88" cy="158.64" r="11.64"/>
      <circle class="cls-1" cx="803.99" cy="150.42" r="10.1"/>
      <circle class="cls-1" cx="794.93" cy="144.02" r="13.33"/>
      <circle class="cls-1" cx="784.22" cy="140.14" r="10.91"/>
      <circle class="cls-1" cx="773.44" cy="136.65" r="9.91"/>
      <circle class="cls-1" cx="762.06" cy="136.38" r="11.54"/>
      <circle class="cls-1" cx="750.67" cy="136.11" r="15.35"/>
      <circle class="cls-1" cx="739.29" cy="136.41" r="12.6"/>
      <circle class="cls-1" cx="727.92" cy="136.95" r="11.27"/>
      <circle class="cls-1" cx="716.61" cy="136.48" r="14.38"/>
      <circle class="cls-1" cx="705.44" cy="134.26" r="15.2"/>
      <circle class="cls-1" cx="694.55" cy="131.19" r="13.02"/>
      <circle class="cls-1" cx="684.2" cy="126.43" r="11.92"/>
      <circle class="cls-1" cx="673.94" cy="121.5" r="11.97"/>
      <circle class="cls-1" cx="663.93" cy="116.07" r="13.97"/>
      <circle class="cls-1" cx="654.53" cy="109.68" r="12.93"/>
      <circle class="cls-1" cx="645.66" cy="102.6" r="13.54"/>
      <circle class="cls-1" cx="638.23" cy="93.97" r="14.87"/>
      <circle class="cls-1" cx="631.2" cy="85.02" r="12.19"/>
      <circle class="cls-1" cx="624.27" cy="76" r="11.57"/>
      <circle class="cls-1" cx="615.91" cy="68.27" r="10.22"/>
      <circle class="cls-1" cx="607.55" cy="60.53" r="15.14"/>
      <circle class="cls-1" cx="599.19" cy="52.8" r="12.99"/>
      <circle class="cls-1" cx="589.7" cy="46.74" r="10.74"/>
      <circle class="cls-1" cx="579.41" cy="41.86" r="11.85"/>
      <circle class="cls-1" cx="569.12" cy="36.97" r="14.45"/>
      <circle class="cls-1" cx="558.65" cy="32.64" r="12.34"/>
      <circle class="cls-1" cx="547.46" cy="30.52" r="9.94"/>
      <circle class="cls-1" cx="536.27" cy="28.4" r="14.21"/>
      <circle class="cls-1" cx="525.08" cy="26.29" r="12.27"/>
      <circle class="cls-1" cx="513.76" cy="25.33" r="11.39"/>
      <circle class="cls-1" cx="502.38" cy="24.77" r="14.81"/>
      <circle class="cls-1" cx="491.01" cy="24.21" r="14.74"/>
      <circle class="cls-1" cx="479.63" cy="23.65" r="15"/>
      <circle class="cls-1" cx="468.26" cy="23.08" r="14.1"/>
      <circle class="cls-1" cx="456.88" cy="22.52" r="14.7"/>
      <circle class="cls-1" cx="445.5" cy="22.14" r="13.03"/>
      <circle class="cls-1" cx="434.12" cy="22.24" r="14.49"/>
      <circle class="cls-1" cx="422.73" cy="22.33" r="11.38"/>
      <circle class="cls-1" cx="411.34" cy="22.43" r="10.47"/>
      <circle class="cls-1" cx="399.95" cy="22.52" r="13.67"/>
      <circle class="cls-1" cx="388.56" cy="22.62" r="10.43"/>
      <circle class="cls-1" cx="377.18" cy="22.71" r="14.75"/>
      <circle class="cls-1" cx="365.79" cy="23.09" r="15.34"/>
      <circle class="cls-1" cx="354.41" cy="23.54" r="14.51"/>
      <circle class="cls-1" cx="343.03" cy="23.99" r="12.39"/>
      <circle class="cls-1" cx="331.65" cy="24.44" r="12.02"/>
      <circle class="cls-1" cx="320.28" cy="24.88" r="10.67"/>
      <circle class="cls-1" cx="308.89" cy="24.85" r="13.61"/>
      <circle class="cls-1" cx="297.5" cy="24.61" r="14.35"/>
      <circle class="cls-1" cx="286.12" cy="24.37" r="14.89"/>
      <circle class="cls-1" cx="274.73" cy="24.13" r="11.69"/>
      <circle class="cls-1" cx="263.35" cy="23.88" r="14.08"/>
      <circle class="cls-1" cx="251.96" cy="23.64" r="12.21"/>
      <circle class="cls-1" cx="240.58" cy="23.3" r="11.03"/>
      <circle class="cls-1" cx="229.22" cy="22.47" r="13.15"/>
      <circle class="cls-1" cx="217.86" cy="21.63" r="12.21"/>
      <circle class="cls-1" cx="206.5" cy="20.8" r="14.59"/>
      <circle class="cls-1" cx="195.15" cy="19.97" r="13.3"/>
      <circle class="cls-1" cx="183.79" cy="19.14" r="14.88"/>
      <circle class="cls-1" cx="172.43" cy="18.31" r="10.43"/>
      <circle class="cls-1" cx="161.06" cy="17.67" r="14.14"/>
      <circle class="cls-1" cx="149.69" cy="17.12" r="10.46"/>
      <circle class="cls-1" cx="138.31" cy="16.57" r="11.7"/>
      <circle class="cls-1" cx="126.93" cy="16.02" r="14.08"/>
      <circle class="cls-1" cx="115.56" cy="15.48" r="15.02"/>
      <circle class="cls-1" cx="104.18" cy="14.93" r="14.27"/>
      <circle class="cls-1" cx="92.82" cy="15.14" r="15.14"/>
      <circle class="cls-1" cx="81.47" cy="16.04" r="9.85"/>
      <circle class="cls-1" cx="70.11" cy="16.94" r="12.78"/>
      <circle class="cls-1" cx="58.76" cy="17.84" r="11.57"/>
      <circle class="cls-1" cx="47.48" cy="19.36" r="12.01"/>
      <circle class="cls-1" cx="36.22" cy="21.08" r="14.24"/>
      <circle class="cls-1" cx="24.96" cy="22.8" r="13.95"/>
      <circle class="cls-1" cx="13.71" cy="24.52" r="11.52"/>
    </g>
  </g>
</svg>