<?xml version="1.0" encoding="UTF-8"?>
<svg id="_레이어_2" data-name="레이어 2" xmlns="http://www.w3.org/2000/svg" viewBox="0 0 1362.49 768.21">
  <defs>
    <style>
      .cls-1 {
        fill: none;
        stroke: #968a77;
        stroke-miterlimit: 10;
        stroke-width: 2px;
      }
    </style>
  </defs>
  <g id="_레이어_1-2" data-name="레이어 1">
    <path class="cls-1" d="M.17,17.57C47.14,9.59,94.37,2.24,141.97,1.15c38.76-.89,77.48,2.38,116.12,5.59,82.29,6.83,164.77,13.38,247.31,11.66,32.34-.67,64.64-2.61,96.96-3.82,81.8-3.04,163.77-1.36,245.39,5.04,66.61,5.22,128.08,30.28,171.3,84.95,12.04,15.23,22.25,32.15,36.3,45.41,14.39,13.58,32.13,22.68,49.61,31.61,23.24,11.86,47.56,24,73.49,23.93,41.87-.12,94.03-11.48,131.17,13.91,23.51,16.07,39.37,42.34,47.12,70.33,6.55,23.65,7.4,50.3-4.36,71.69-7.86,14.31-20.64,25.03-33.95,34.08-24.48,16.63-51.81,28.76-80.34,35.65-56.86,13.73-119.64,7.39-170.28,37.42-14.25,8.45-26.97,19.52-41.52,27.4-57.23,30.97-137.7,10.67-181.75,59.5-46.63,51.69-19.44,148.19-71.36,194.19-28.04,24.84-74.59,23.04-100.74-3.9-19.61-20.19-27.23-50.46-47.36-70.09-12.06-11.76-27.71-18.78-43.42-24.28-99.22-34.75-216.5-19.82-300.75-84.14-36.87-28.15-63.24-68.95-99.97-97.27-31.01-23.91-68.06-37.9-101.07-58.76-33.01-20.86-63.67-52.09-68.48-91.74-2.35-19.4,1.73-39.05,.83-58.59-1.54-33.29-17.37-67.22-6.71-98.67,14.17-41.8,65.74-53.94,108.61-52.65,56.37,1.7,111.95,15.19,168.33,16.7,60.9,1.63,121.37-10.75,182.27-12.56,78.21-2.32,155.81,12.79,232.68,27.84,23.42,4.58,46.94,9.2,69.45,17.28,24.05,8.63,46.62,21.1,69.94,31.66,71.81,32.52,150.28,46.78,222.67,77.91,12.73,5.48,26.18,12.35,32.36,25.09,9.24,19.05-2.05,42.25-16.98,56.96-64.7,63.79-174.07,32.91-254.69,72.94-58.48,29.04-98.33,94-161.45,109.54-41.37,10.18-87.64-5.01-115.73-37.99-10.01-11.75-18.28-25.91-31.67-33.23-13.95-7.63-30.64-6.32-46.43-6.48-102.11-1-190.52-69.36-270.75-134.59-8.2-6.67-16.63-13.62-21.49-23.15-10.8-21.18-.15-48.08,16.62-64.61,25.82-25.44,63.73-34.1,99.35-31.91,35.62,2.19,69.93,13.98,104.11,24.57,79.87,24.74,161.5,43.42,244.01,55.83,8.6,1.29,17.44,2.6,24.97,7.08,19.12,11.38,22.44,41.1,10.19,60.05-12.25,18.95-35.6,27.66-57.66,27.48-22.07-.19-43.34-7.92-64.05-15.79-62.65-23.8-124.55-49.7-185.58-77.63"/>
  </g>
</svg>