<?xml version="1.0" encoding="UTF-8"?>
<svg id="_레이어_2" data-name="레이어 2" xmlns="http://www.w3.org/2000/svg" viewBox="0 0 817.51 447.82">
  <defs>
    <style>
      .cls-1 {
        fill: none;
        stroke: #968a77;
        stroke-miterlimit: 10;
        stroke-width: 1.2px;
      }
    </style>
  </defs>
  <g id="_레이어_1-2" data-name="레이어 1">
    <path class="cls-1" d="M.1,10.26C28.28,5.61,56.62,1.32,85.18,.69c23.25-.52,46.49,1.39,69.67,3.26,49.38,3.98,98.86,7.8,148.39,6.8,19.4-.39,38.78-1.52,58.18-2.23,49.08-1.78,98.26-.79,147.24,2.94,39.96,3.05,76.85,17.66,102.78,49.54,7.22,8.88,13.35,18.75,21.78,26.48,8.64,7.92,19.28,13.23,29.77,18.43,13.95,6.92,28.54,14,44.1,13.95,25.12-.07,56.42-6.7,78.7,8.12,14.1,9.37,23.62,24.69,28.27,41.02,3.93,13.79,4.44,29.34-2.61,41.81-4.72,8.35-12.38,14.6-20.37,19.87-14.69,9.7-31.09,16.77-48.21,20.79-34.12,8.01-71.79,4.31-102.17,21.82-22.85,13.17-38.94,22.72-65.83,26.91-24.21,3.77-52.28,5.93-69.56,25.63-26.61,30.32-10.84,84.92-41.45,111.19-16.11,13.83-42.53,13.52-58.31-.68-11.87-10.68-17.15-26.94-27.9-38.73-12.65-13.87-31.5-20.19-49.84-24.2-53.39-11.68-112.56-9.61-157.09-41.3-24.3-17.29-41.53-43.08-65.74-60.49-17.44-12.55-37.85-20.28-56.27-31.34-18.42-11.07-35.7-26.95-40.45-47.9-3.01-13.28-.67-27.13-1.54-40.72-1.41-22.18-10.95-46.33,.66-65.27,10.66-17.41,34.08-21.26,54.49-21.38,35.51-.21,70.8,5.53,106.28,6.83,61.46,2.24,122.81-8.86,184.28-7.01,37.34,1.12,75.56,7.41,107.58,26.64,19.81,11.9,36.95,28.55,58.49,36.9,21.47,8.33,45.18,7.61,68.12,9.68,18.74,1.69,39.75,5.96,55.1,17.5,21.11,15.87,19.14,39.77-2.38,54.84-14.32,10.02-33.48,15.45-50.58,18.28-35.38,5.84-74.79,4.74-107.02,24.1-29.74,17.87-51.38,49.67-86.51,58.08-24.82,5.94-52.59-2.92-69.44-22.15-6.01-6.86-10.97-15.11-19-19.38-8.37-4.45-18.39-3.69-27.86-3.78-61.27-.58-114.32-40.45-162.45-78.5-4.92-3.89-9.98-7.94-12.9-13.5-6.48-12.35-.09-28.04,9.97-37.68,15.49-14.84,43.8-16.07,65.17-14.79,21.37,1.28,36.4,4.34,56.91,10.51,29.26,8.81,59.78,11.78,90.08,14.56,23.08,2.12,47.07,.95,69.59,7.28,8.55,2.4,31.5,14.44,34.85,22.66,5.41,13.28,7.4,36.28-4.72,45.03-4.84,3.49-31.79,8.94-37.74,9.37-29.5,2.12-59.5-10.73-86.46-21.17-28.38-10.99-54.69-32.11-82.49-44.48"/>
  </g>
</svg>