<?xml version="1.0" encoding="UTF-8"?>
<svg id="_레이어_2" data-name="레이어 2" xmlns="http://www.w3.org/2000/svg" viewBox="0 0 831.69 462.74">
  <defs>
    <style>
      .cls-1 {
        fill: #968a77;
      }
    </style>
  </defs>
  <g id="_레이어_1-2" data-name="레이어 1">
    <g>
      <circle class="cls-1" cx="230.13" cy="174.95" r="7.6"/>
      <circle class="cls-1" cx="236.1" cy="178.26" r="9.2"/>
      <circle class="cls-1" cx="242.08" cy="181.58" r="6.3"/>
      <circle class="cls-1" cx="248.06" cy="184.89" r="7.13"/>
      <circle class="cls-1" cx="254.03" cy="188.21" r="8"/>
      <circle class="cls-1" cx="260.01" cy="191.52" r="9.03"/>
      <circle class="cls-1" cx="265.98" cy="194.84" r="8.89"/>
      <circle class="cls-1" cx="272.03" cy="198.02" r="7.83"/>
      <circle class="cls-1" cx="278.08" cy="201.19" r="8.2"/>
      <circle class="cls-1" cx="284.13" cy="204.36" r="7.59"/>
      <circle class="cls-1" cx="290.19" cy="207.54" r="8.04"/>
      <circle class="cls-1" cx="296.24" cy="210.71" r="7.29"/>
      <circle class="cls-1" cx="302.29" cy="213.88" r="6.59"/>
      <circle class="cls-1" cx="308.35" cy="217.03" r="7.01"/>
      <circle class="cls-1" cx="314.74" cy="219.46" r="8.87"/>
      <circle class="cls-1" cx="321.13" cy="221.89" r="7.34"/>
      <circle class="cls-1" cx="327.51" cy="224.32" r="6.55"/>
      <circle class="cls-1" cx="333.9" cy="226.75" r="7.36"/>
      <circle class="cls-1" cx="340.41" cy="228.81" r="7.16"/>
      <circle class="cls-1" cx="346.97" cy="230.7" r="8.68"/>
      <circle class="cls-1" cx="353.54" cy="232.58" r="6.87"/>
      <circle class="cls-1" cx="360.11" cy="234.47" r="7.46"/>
      <circle class="cls-1" cx="366.74" cy="236.02" r="8.26"/>
      <circle class="cls-1" cx="373.55" cy="236.53" r="7"/>
      <circle class="cls-1" cx="380.37" cy="237.05" r="6.27"/>
      <circle class="cls-1" cx="387.18" cy="237.56" r="6.15"/>
      <circle class="cls-1" cx="393.99" cy="238.07" r="8.22"/>
      <circle class="cls-1" cx="400.75" cy="237.13" r="8.05"/>
      <circle class="cls-1" cx="407.47" cy="235.93" r="8.46"/>
      <circle class="cls-1" cx="414.13" cy="234.4" r="6.24"/>
      <circle class="cls-1" cx="420.79" cy="232.86" r="7.73"/>
      <circle class="cls-1" cx="427.24" cy="230.63" r="9.16"/>
      <circle class="cls-1" cx="433.08" cy="227.58" r="8.22"/>
      <circle class="cls-1" cx="436.68" cy="221.77" r="8.02"/>
      <circle class="cls-1" cx="440.18" cy="215.93" r="9.23"/>
      <circle class="cls-1" cx="440.49" cy="209.1" r="8.42"/>
      <circle class="cls-1" cx="440.81" cy="202.27" r="8.83"/>
      <circle class="cls-1" cx="440.01" cy="195.56" r="7.97"/>
      <circle class="cls-1" cx="438.36" cy="188.93" r="9.05"/>
      <circle class="cls-1" cx="436.06" cy="182.66" r="7.55"/>
      <circle class="cls-1" cx="431.33" cy="177.73" r="7.27"/>
      <circle class="cls-1" cx="426.16" cy="173.34" r="6.2"/>
      <circle class="cls-1" cx="420.32" cy="169.8" r="8.99"/>
      <circle class="cls-1" cx="414.47" cy="166.26" r="7.8"/>
      <circle class="cls-1" cx="408.19" cy="163.58" r="7.13"/>
      <circle class="cls-1" cx="401.87" cy="161" r="7.43"/>
      <circle class="cls-1" cx="395.11" cy="159.98" r="7.81"/>
      <circle class="cls-1" cx="388.36" cy="158.96" r="8.85"/>
      <circle class="cls-1" cx="381.6" cy="157.94" r="7.31"/>
      <circle class="cls-1" cx="374.84" cy="156.92" r="8.93"/>
      <circle class="cls-1" cx="368.09" cy="155.9" r="7.13"/>
      <circle class="cls-1" cx="361.27" cy="155.46" r="7.6"/>
      <circle class="cls-1" cx="354.45" cy="155.06" r="6.31"/>
      <circle class="cls-1" cx="347.63" cy="154.66" r="7.55"/>
      <circle class="cls-1" cx="340.81" cy="154.25" r="6.61"/>
      <circle class="cls-1" cx="333.99" cy="153.85" r="9.11"/>
      <circle class="cls-1" cx="327.19" cy="153.17" r="8.23"/>
      <circle class="cls-1" cx="320.4" cy="152.42" r="6.12"/>
      <circle class="cls-1" cx="313.6" cy="151.67" r="7.57"/>
      <circle class="cls-1" cx="306.81" cy="150.92" r="9.09"/>
      <circle class="cls-1" cx="300.02" cy="150.17" r="8.12"/>
      <circle class="cls-1" cx="293.23" cy="149.42" r="9.22"/>
      <circle class="cls-1" cx="286.45" cy="148.6" r="6.5"/>
      <circle class="cls-1" cx="279.77" cy="147.17" r="7.47"/>
      <circle class="cls-1" cx="273.08" cy="145.74" r="6.72"/>
      <circle class="cls-1" cx="266.4" cy="144.31" r="8.28"/>
      <circle class="cls-1" cx="259.72" cy="142.89" r="6.99"/>
      <circle class="cls-1" cx="253.04" cy="141.46" r="7.44"/>
      <circle class="cls-1" cx="246.36" cy="140.03" r="8.02"/>
      <circle class="cls-1" cx="239.7" cy="138.5" r="9.06"/>
      <circle class="cls-1" cx="233.07" cy="136.83" r="6.54"/>
      <circle class="cls-1" cx="226.45" cy="135.16" r="9.23"/>
      <circle class="cls-1" cx="219.82" cy="133.49" r="7.55"/>
      <circle class="cls-1" cx="213.16" cy="131.97" r="7.71"/>
      <circle class="cls-1" cx="206.38" cy="131.17" r="6"/>
      <circle class="cls-1" cx="199.59" cy="130.36" r="7.13"/>
      <circle class="cls-1" cx="192.81" cy="129.56" r="6.85"/>
      <circle class="cls-1" cx="186.02" cy="128.75" r="9.07"/>
      <circle class="cls-1" cx="179.19" cy="128.7" r="7.63"/>
      <circle class="cls-1" cx="172.36" cy="128.69" r="8.15"/>
      <circle class="cls-1" cx="165.53" cy="128.68" r="8.82"/>
      <circle class="cls-1" cx="158.75" cy="129.37" r="9.12"/>
      <circle class="cls-1" cx="152.03" cy="130.56" r="7.54"/>
      <circle class="cls-1" cx="145.3" cy="131.76" r="7.97"/>
      <circle class="cls-1" cx="138.68" cy="133.25" r="8.21"/>
      <circle class="cls-1" cx="132.72" cy="136.6" r="7.53"/>
      <circle class="cls-1" cx="126.77" cy="139.95" r="7.38"/>
      <circle class="cls-1" cx="120.81" cy="143.3" r="8.72"/>
      <circle class="cls-1" cx="116.6" cy="148.64" r="7.46"/>
      <circle class="cls-1" cx="112.5" cy="154.11" r="6.1"/>
      <circle class="cls-1" cx="110.25" cy="160.51" r="7.03"/>
      <circle class="cls-1" cx="108.27" cy="167.05" r="7.97"/>
      <circle class="cls-1" cx="109.06" cy="173.73" r="6.38"/>
      <circle class="cls-1" cx="110.36" cy="180.44" r="7.9"/>
      <circle class="cls-1" cx="114.7" cy="185.58" r="6.3"/>
      <circle class="cls-1" cx="119.42" cy="190.52" r="8.21"/>
      <circle class="cls-1" cx="124.25" cy="195.33" r="6.23"/>
      <circle class="cls-1" cx="129.69" cy="199.47" r="8.85"/>
      <circle class="cls-1" cx="135.13" cy="203.61" r="7.12"/>
      <circle class="cls-1" cx="140.56" cy="207.75" r="7.18"/>
      <circle class="cls-1" cx="146" cy="211.89" r="8.33"/>
      <circle class="cls-1" cx="151.43" cy="216.03" r="6.77"/>
      <circle class="cls-1" cx="156.87" cy="220.17" r="7.28"/>
      <circle class="cls-1" cx="162.42" cy="224.16" r="6.12"/>
      <circle class="cls-1" cx="168.17" cy="227.84" r="6.16"/>
      <circle class="cls-1" cx="173.93" cy="231.52" r="8.6"/>
      <circle class="cls-1" cx="179.69" cy="235.2" r="8.4"/>
      <circle class="cls-1" cx="185.45" cy="238.87" r="8.18"/>
      <circle class="cls-1" cx="191.21" cy="242.55" r="7.55"/>
      <circle class="cls-1" cx="196.96" cy="246.23" r="7.02"/>
      <circle class="cls-1" cx="202.99" cy="249.4" r="7.72"/>
      <circle class="cls-1" cx="209.26" cy="252.12" r="6.62"/>
      <circle class="cls-1" cx="215.53" cy="254.83" r="6.07"/>
      <circle class="cls-1" cx="221.81" cy="257.55" r="6.87"/>
      <circle class="cls-1" cx="228.08" cy="260.26" r="6.44"/>
      <circle class="cls-1" cx="234.35" cy="262.97" r="8.28"/>
      <circle class="cls-1" cx="240.62" cy="265.69" r="6.83"/>
      <circle class="cls-1" cx="247.31" cy="266.97" r="8.7"/>
      <circle class="cls-1" cx="254.05" cy="268.06" r="6.39"/>
      <circle class="cls-1" cx="260.8" cy="269.15" r="6.45"/>
      <circle class="cls-1" cx="267.55" cy="270.23" r="8.9"/>
      <circle class="cls-1" cx="274.29" cy="271.32" r="7.66"/>
      <circle class="cls-1" cx="281.04" cy="272.41" r="6.72"/>
      <circle class="cls-1" cx="287.81" cy="273.22" r="8.96"/>
      <circle class="cls-1" cx="294.64" cy="273.34" r="6.4"/>
      <circle class="cls-1" cx="301.43" cy="273.76" r="6.81"/>
      <circle class="cls-1" cx="308.04" cy="275.48" r="7.33"/>
      <circle class="cls-1" cx="314.45" cy="277.59" r="6.5"/>
      <circle class="cls-1" cx="319.66" cy="282.02" r="7.67"/>
      <circle class="cls-1" cx="324.72" cy="286.59" r="6.32"/>
      <circle class="cls-1" cx="329.05" cy="291.88" r="6.03"/>
      <circle class="cls-1" cx="333.55" cy="296.99" r="6.79"/>
      <circle class="cls-1" cx="338.93" cy="301.2" r="8.66"/>
      <circle class="cls-1" cx="344.31" cy="305.41" r="6.37"/>
      <circle class="cls-1" cx="349.7" cy="309.62" r="9.05"/>
      <circle class="cls-1" cx="355.58" cy="312.88" r="6.09"/>
      <circle class="cls-1" cx="362.09" cy="314.95" r="6.78"/>
      <circle class="cls-1" cx="368.6" cy="317.03" r="8.4"/>
      <circle class="cls-1" cx="375.11" cy="319.11" r="8.4"/>
      <circle class="cls-1" cx="381.85" cy="319.43" r="8.6"/>
      <circle class="cls-1" cx="388.68" cy="319.12" r="8.79"/>
      <circle class="cls-1" cx="395.51" cy="318.8" r="6.17"/>
      <circle class="cls-1" cx="402.32" cy="318.42" r="9.22"/>
      <circle class="cls-1" cx="408.62" cy="315.78" r="7.1"/>
      <circle class="cls-1" cx="414.92" cy="313.15" r="7.29"/>
      <circle class="cls-1" cx="421.23" cy="310.51" r="7.12"/>
      <circle class="cls-1" cx="427.38" cy="307.6" r="7.95"/>
      <circle class="cls-1" cx="432.9" cy="303.58" r="7.73"/>
      <circle class="cls-1" cx="438.43" cy="299.56" r="8.21"/>
      <circle class="cls-1" cx="443.95" cy="295.53" r="8.82"/>
      <circle class="cls-1" cx="449.35" cy="291.36" r="6.45"/>
      <circle class="cls-1" cx="454.55" cy="286.92" r="6.8"/>
      <circle class="cls-1" cx="459.75" cy="282.49" r="7.75"/>
      <circle class="cls-1" cx="464.95" cy="278.05" r="6.99"/>
      <circle class="cls-1" cx="470.31" cy="273.82" r="6.5"/>
      <circle class="cls-1" cx="475.82" cy="269.79" r="8.51"/>
      <circle class="cls-1" cx="481.34" cy="265.76" r="8.2"/>
      <circle class="cls-1" cx="486.86" cy="261.73" r="7.18"/>
      <circle class="cls-1" cx="492.94" cy="258.72" r="9.2"/>
      <circle class="cls-1" cx="499.29" cy="256.2" r="7.45"/>
      <circle class="cls-1" cx="505.64" cy="253.68" r="7.5"/>
      <circle class="cls-1" cx="512" cy="251.16" r="7.57"/>
      <circle class="cls-1" cx="518.35" cy="248.65" r="6.62"/>
      <circle class="cls-1" cx="524.81" cy="246.54" r="6.11"/>
      <circle class="cls-1" cx="531.56" cy="245.43" r="6.65"/>
      <circle class="cls-1" cx="538.3" cy="244.32" r="6.61"/>
      <circle class="cls-1" cx="545.04" cy="243.21" r="7.95"/>
      <circle class="cls-1" cx="551.79" cy="242.1" r="9.21"/>
      <circle class="cls-1" cx="558.53" cy="240.99" r="7.31"/>
      <circle class="cls-1" cx="565.3" cy="240.11" r="7.11"/>
      <circle class="cls-1" cx="572.08" cy="239.26" r="6.88"/>
      <circle class="cls-1" cx="578.86" cy="238.42" r="6.17"/>
      <circle class="cls-1" cx="585.64" cy="237.57" r="7.84"/>
      <circle class="cls-1" cx="592.42" cy="236.72" r="6.09"/>
      <circle class="cls-1" cx="599.13" cy="235.47" r="6.65"/>
      <circle class="cls-1" cx="605.77" cy="233.84" r="9.11"/>
      <circle class="cls-1" cx="612.41" cy="232.22" r="8.26"/>
      <circle class="cls-1" cx="619.04" cy="230.6" r="6.17"/>
      <circle class="cls-1" cx="625.41" cy="228.22" r="8.11"/>
      <circle class="cls-1" cx="631.55" cy="225.22" r="7.8"/>
      <circle class="cls-1" cx="637.69" cy="222.22" r="6.39"/>
      <circle class="cls-1" cx="643.83" cy="219.22" r="6.03"/>
      <circle class="cls-1" cx="649.15" cy="215.08" r="6.99"/>
      <circle class="cls-1" cx="653.92" cy="210.2" r="7.5"/>
      <circle class="cls-1" cx="658.69" cy="205.31" r="7.16"/>
      <circle class="cls-1" cx="660.83" cy="198.82" r="9.23"/>
      <circle class="cls-1" cx="662.97" cy="192.33" r="8.21"/>
      <circle class="cls-1" cx="662.28" cy="185.7" r="8.13"/>
      <circle class="cls-1" cx="660.79" cy="179.03" r="6.01"/>
      <circle class="cls-1" cx="657.5" cy="173.28" r="6.78"/>
      <circle class="cls-1" cx="652.99" cy="168.15" r="7.39"/>
      <circle class="cls-1" cx="648.42" cy="163.1" r="7.82"/>
      <circle class="cls-1" cx="642.24" cy="160.17" r="6.04"/>
      <circle class="cls-1" cx="636.06" cy="157.25" r="7.16"/>
      <circle class="cls-1" cx="629.89" cy="154.32" r="7.58"/>
      <circle class="cls-1" cx="623.71" cy="151.4" r="8.58"/>
      <circle class="cls-1" cx="617.1" cy="149.84" r="6.91"/>
      <circle class="cls-1" cx="610.37" cy="148.66" r="7.14"/>
      <circle class="cls-1" cx="603.64" cy="147.47" r="7.62"/>
      <circle class="cls-1" cx="596.91" cy="146.29" r="7.55"/>
      <circle class="cls-1" cx="590.14" cy="145.46" r="7.17"/>
      <circle class="cls-1" cx="583.32" cy="144.97" r="9.05"/>
      <circle class="cls-1" cx="576.51" cy="144.47" r="7.85"/>
      <circle class="cls-1" cx="569.69" cy="143.98" r="7"/>
      <circle class="cls-1" cx="562.88" cy="143.49" r="5.91"/>
      <circle class="cls-1" cx="556.12" cy="142.6" r="6.35"/>
      <circle class="cls-1" cx="549.44" cy="141.17" r="7.94"/>
      <circle class="cls-1" cx="542.76" cy="139.74" r="8.37"/>
      <circle class="cls-1" cx="536.07" cy="138.31" r="8.88"/>
      <circle class="cls-1" cx="529.39" cy="136.87" r="8.47"/>
      <circle class="cls-1" cx="523.02" cy="134.65" r="7.65"/>
      <circle class="cls-1" cx="517.09" cy="131.25" r="6.39"/>
      <circle class="cls-1" cx="511.16" cy="127.85" r="8.26"/>
      <circle class="cls-1" cx="505.23" cy="124.46" r="8.58"/>
      <circle class="cls-1" cx="499.3" cy="121.06" r="8.03"/>
      <circle class="cls-1" cx="493.48" cy="117.49" r="7.38"/>
      <circle class="cls-1" cx="487.86" cy="113.6" r="6.21"/>
      <circle class="cls-1" cx="482.24" cy="109.71" r="7.74"/>
      <circle class="cls-1" cx="476.62" cy="105.82" r="6.27"/>
      <circle class="cls-1" cx="471" cy="101.94" r="9.17"/>
      <circle class="cls-1" cx="465.22" cy="98.35" r="6.67"/>
      <circle class="cls-1" cx="458.98" cy="95.55" r="8.81"/>
      <circle class="cls-1" cx="452.75" cy="92.75" r="6.58"/>
      <circle class="cls-1" cx="446.52" cy="89.94" r="5.96"/>
      <circle class="cls-1" cx="440.29" cy="87.14" r="7.56"/>
      <circle class="cls-1" cx="434.05" cy="84.34" r="8.35"/>
      <circle class="cls-1" cx="427.46" cy="82.63" r="6.42"/>
      <circle class="cls-1" cx="420.79" cy="81.11" r="7.89"/>
      <circle class="cls-1" cx="414.13" cy="79.58" r="9.19"/>
      <circle class="cls-1" cx="407.47" cy="78.06" r="8.07"/>
      <circle class="cls-1" cx="400.81" cy="76.54" r="6.34"/>
      <circle class="cls-1" cx="394.09" cy="75.39" r="8.02"/>
      <circle class="cls-1" cx="387.28" cy="74.82" r="8.36"/>
      <circle class="cls-1" cx="380.47" cy="74.25" r="8.11"/>
      <circle class="cls-1" cx="373.66" cy="73.68" r="8.64"/>
      <circle class="cls-1" cx="366.85" cy="73.11" r="6.69"/>
      <circle class="cls-1" cx="360.04" cy="72.54" r="6.2"/>
      <circle class="cls-1" cx="353.21" cy="72.63" r="8"/>
      <circle class="cls-1" cx="346.38" cy="72.79" r="8.7"/>
      <circle class="cls-1" cx="339.55" cy="72.96" r="6.63"/>
      <circle class="cls-1" cx="332.72" cy="73.13" r="7.94"/>
      <circle class="cls-1" cx="325.89" cy="73.29" r="7.58"/>
      <circle class="cls-1" cx="319.06" cy="73.46" r="8.73"/>
      <circle class="cls-1" cx="312.23" cy="73.63" r="7.5"/>
      <circle class="cls-1" cx="305.4" cy="73.79" r="8.75"/>
      <circle class="cls-1" cx="298.57" cy="73.96" r="7.14"/>
      <circle class="cls-1" cx="291.75" cy="74.4" r="7.75"/>
      <circle class="cls-1" cx="284.93" cy="74.88" r="7.01"/>
      <circle class="cls-1" cx="278.11" cy="75.36" r="7"/>
      <circle class="cls-1" cx="271.3" cy="75.83" r="7.97"/>
      <circle class="cls-1" cx="264.48" cy="76.31" r="6.45"/>
      <circle class="cls-1" cx="257.67" cy="76.78" r="8.48"/>
      <circle class="cls-1" cx="250.85" cy="77.26" r="9.07"/>
      <circle class="cls-1" cx="244.03" cy="77.73" r="6.8"/>
      <circle class="cls-1" cx="237.22" cy="78.21" r="6.44"/>
      <circle class="cls-1" cx="230.39" cy="78.38" r="5.89"/>
      <circle class="cls-1" cx="223.55" cy="78.52" r="7.04"/>
      <circle class="cls-1" cx="216.72" cy="78.66" r="6.09"/>
      <circle class="cls-1" cx="209.89" cy="78.79" r="6.38"/>
      <circle class="cls-1" cx="203.06" cy="78.93" r="7.51"/>
      <circle class="cls-1" cx="196.23" cy="79.07" r="8.48"/>
      <circle class="cls-1" cx="189.39" cy="79.21" r="6.67"/>
      <circle class="cls-1" cx="182.56" cy="79.34" r="7.13"/>
      <circle class="cls-1" cx="175.73" cy="79.48" r="6.55"/>
      <circle class="cls-1" cx="168.92" cy="79.03" r="8.6"/>
      <circle class="cls-1" cx="162.1" cy="78.52" r="8.89"/>
      <circle class="cls-1" cx="155.29" cy="78.01" r="6.94"/>
      <circle class="cls-1" cx="148.47" cy="77.5" r="8.48"/>
      <circle class="cls-1" cx="141.66" cy="76.99" r="6.78"/>
      <circle class="cls-1" cx="134.84" cy="76.48" r="6.85"/>
      <circle class="cls-1" cx="128.03" cy="75.97" r="7.07"/>
      <circle class="cls-1" cx="121.22" cy="75.48" r="8.25"/>
      <circle class="cls-1" cx="114.39" cy="75.11" r="9.2"/>
      <circle class="cls-1" cx="107.57" cy="74.75" r="6.29"/>
      <circle class="cls-1" cx="100.75" cy="74.38" r="8.24"/>
      <circle class="cls-1" cx="93.92" cy="74.01" r="7.49"/>
      <circle class="cls-1" cx="87.1" cy="73.65" r="7.43"/>
      <circle class="cls-1" cx="80.28" cy="73.28" r="6.06"/>
      <circle class="cls-1" cx="73.45" cy="72.92" r="7.21"/>
      <circle class="cls-1" cx="66.63" cy="72.85" r="6.86"/>
      <circle class="cls-1" cx="59.82" cy="73.41" r="7.82"/>
      <circle class="cls-1" cx="53.01" cy="73.98" r="8.23"/>
      <circle class="cls-1" cx="46.29" cy="74.95" r="8.62"/>
      <circle class="cls-1" cx="39.8" cy="77.1" r="6.19"/>
      <circle class="cls-1" cx="33.31" cy="79.25" r="6.65"/>
      <circle class="cls-1" cx="27.24" cy="82.09" r="6.06"/>
      <circle class="cls-1" cx="22.22" cy="86.72" r="7.56"/>
      <circle class="cls-1" cx="17.2" cy="91.36" r="6.57"/>
      <circle class="cls-1" cx="13.53" cy="96.82" r="8.98"/>
      <circle class="cls-1" cx="11.71" cy="103.41" r="7.63"/>
      <circle class="cls-1" cx="9.89" cy="110" r="8.63"/>
      <circle class="cls-1" cx="8.85" cy="116.65" r="8.84"/>
      <circle class="cls-1" cx="9.44" cy="123.46" r="7.53"/>
      <circle class="cls-1" cx="10.03" cy="130.27" r="9.16"/>
      <circle class="cls-1" cx="10.64" cy="137.07" r="8.5"/>
      <circle class="cls-1" cx="11.55" cy="143.85" r="8.87"/>
      <circle class="cls-1" cx="12.47" cy="150.62" r="6.82"/>
      <circle class="cls-1" cx="13.38" cy="157.39" r="7.76"/>
      <circle class="cls-1" cx="13.63" cy="164.21" r="8.08"/>
      <circle class="cls-1" cx="13.62" cy="171.04" r="6.91"/>
      <circle class="cls-1" cx="13.6" cy="177.87" r="8.88"/>
      <circle class="cls-1" cx="13.98" cy="184.69" r="8.5"/>
      <circle class="cls-1" cx="14.51" cy="191.5" r="7.82"/>
      <circle class="cls-1" cx="15.04" cy="198.32" r="8.78"/>
      <circle class="cls-1" cx="17.23" cy="204.71" r="6.6"/>
      <circle class="cls-1" cx="19.99" cy="210.96" r="7.58"/>
      <circle class="cls-1" cx="22.75" cy="217.21" r="8.61"/>
      <circle class="cls-1" cx="26.71" cy="222.69" r="6.64"/>
      <circle class="cls-1" cx="31.27" cy="227.77" r="7.28"/>
      <circle class="cls-1" cx="35.84" cy="232.86" r="7.46"/>
      <circle class="cls-1" cx="40.92" cy="237.36" r="6.93"/>
      <circle class="cls-1" cx="46.47" cy="241.36" r="8.52"/>
      <circle class="cls-1" cx="52.01" cy="245.35" r="6.43"/>
      <circle class="cls-1" cx="57.73" cy="249.06" r="6.29"/>
      <circle class="cls-1" cx="63.77" cy="252.27" r="7.78"/>
      <circle class="cls-1" cx="69.8" cy="255.47" r="8.35"/>
      <circle class="cls-1" cx="75.84" cy="258.67" r="6.65"/>
      <circle class="cls-1" cx="81.88" cy="261.87" r="7.31"/>
      <circle class="cls-1" cx="87.83" cy="265.23" r="6.52"/>
      <circle class="cls-1" cx="93.73" cy="268.68" r="6.31"/>
      <circle class="cls-1" cx="99.63" cy="272.12" r="8.85"/>
      <circle class="cls-1" cx="105.53" cy="275.57" r="6.99"/>
      <circle class="cls-1" cx="111.43" cy="279.02" r="6.08"/>
      <circle class="cls-1" cx="116.63" cy="283.43" r="9.19"/>
      <circle class="cls-1" cx="121.78" cy="287.93" r="6.42"/>
      <circle class="cls-1" cx="126.92" cy="292.43" r="7.61"/>
      <circle class="cls-1" cx="132.07" cy="296.92" r="7.21"/>
      <circle class="cls-1" cx="137" cy="301.64" r="7.38"/>
      <circle class="cls-1" cx="141.77" cy="306.54" r="8.07"/>
      <circle class="cls-1" cx="146.54" cy="311.43" r="7.81"/>
      <circle class="cls-1" cx="151.31" cy="316.32" r="8.16"/>
      <circle class="cls-1" cx="156.15" cy="321.14" r="6.64"/>
      <circle class="cls-1" cx="161.31" cy="325.62" r="8.68"/>
      <circle class="cls-1" cx="166.47" cy="330.09" r="8.79"/>
      <circle class="cls-1" cx="171.63" cy="334.57" r="8.75"/>
      <circle class="cls-1" cx="176.79" cy="339.05" r="6.9"/>
      <circle class="cls-1" cx="182.73" cy="342.37" r="6.1"/>
      <circle class="cls-1" cx="188.83" cy="345.46" r="7.64"/>
      <circle class="cls-1" cx="194.92" cy="348.56" r="8.61"/>
      <circle class="cls-1" cx="201.02" cy="351.65" r="8.77"/>
      <circle class="cls-1" cx="207.11" cy="354.74" r="8.63"/>
      <circle class="cls-1" cx="213.2" cy="357.83" r="7.62"/>
      <circle class="cls-1" cx="219.8" cy="359.57" r="8.28"/>
      <circle class="cls-1" cx="226.43" cy="361.24" r="8.47"/>
      <circle class="cls-1" cx="233.05" cy="362.92" r="8.37"/>
      <circle class="cls-1" cx="239.68" cy="364.6" r="7.86"/>
      <circle class="cls-1" cx="246.3" cy="366.27" r="8.82"/>
      <circle class="cls-1" cx="252.93" cy="367.94" r="8.69"/>
      <circle class="cls-1" cx="259.68" cy="368.97" r="8.46"/>
      <circle class="cls-1" cx="266.44" cy="369.99" r="5.99"/>
      <circle class="cls-1" cx="273.19" cy="371.02" r="9.02"/>
      <circle class="cls-1" cx="279.95" cy="372.04" r="6.51"/>
      <circle class="cls-1" cx="286.71" cy="373.06" r="6.11"/>
      <circle class="cls-1" cx="293.46" cy="374.09" r="6.98"/>
      <circle class="cls-1" cx="300.2" cy="375.22" r="8.21"/>
      <circle class="cls-1" cx="306.94" cy="376.37" r="9.24"/>
      <circle class="cls-1" cx="313.67" cy="377.51" r="7.2"/>
      <circle class="cls-1" cx="320.41" cy="378.65" r="7.62"/>
      <circle class="cls-1" cx="327.15" cy="379.8" r="8.85"/>
      <circle class="cls-1" cx="333.88" cy="380.94" r="8.19"/>
      <circle class="cls-1" cx="340.44" cy="382.86" r="8.17"/>
      <circle class="cls-1" cx="346.96" cy="384.88" r="8.83"/>
      <circle class="cls-1" cx="353.49" cy="386.91" r="8.3"/>
      <circle class="cls-1" cx="360.01" cy="388.94" r="7.07"/>
      <circle class="cls-1" cx="365.88" cy="392.33" r="9.23"/>
      <circle class="cls-1" cx="371.49" cy="396.22" r="5.9"/>
      <circle class="cls-1" cx="377.11" cy="400.11" r="9.11"/>
      <circle class="cls-1" cx="382.72" cy="404.01" r="7.96"/>
      <circle class="cls-1" cx="387.15" cy="409.07" r="6.23"/>
      <circle class="cls-1" cx="391.01" cy="414.71" r="7.84"/>
      <circle class="cls-1" cx="394.87" cy="420.35" r="5.94"/>
      <circle class="cls-1" cx="398.77" cy="425.96" r="7.81"/>
      <circle class="cls-1" cx="402.9" cy="431.41" r="7.56"/>
      <circle class="cls-1" cx="407.03" cy="436.85" r="8.71"/>
      <circle class="cls-1" cx="411.16" cy="442.3" r="7.1"/>
      <circle class="cls-1" cx="416.62" cy="446.16" r="7.31"/>
      <circle class="cls-1" cx="422.69" cy="449.29" r="6.92"/>
      <circle class="cls-1" cx="428.77" cy="452.42" r="8.9"/>
      <circle class="cls-1" cx="435.32" cy="453.63" r="9.12"/>
      <circle class="cls-1" cx="442.15" cy="453.71" r="8.77"/>
      <circle class="cls-1" cx="448.99" cy="453.79" r="8.02"/>
      <circle class="cls-1" cx="455.43" cy="452.15" r="7.47"/>
      <circle class="cls-1" cx="461.58" cy="449.16" r="7.85"/>
      <circle class="cls-1" cx="467.73" cy="446.18" r="7.58"/>
      <circle class="cls-1" cx="472.79" cy="441.9" r="7.64"/>
      <circle class="cls-1" cx="476.78" cy="436.36" r="9.09"/>
      <circle class="cls-1" cx="480.78" cy="430.81" r="6"/>
      <circle class="cls-1" cx="484.51" cy="425.15" r="8"/>
      <circle class="cls-1" cx="486.41" cy="418.58" r="6.11"/>
      <circle class="cls-1" cx="488.3" cy="412.01" r="7.56"/>
      <circle class="cls-1" cx="490.2" cy="405.45" r="7.06"/>
      <circle class="cls-1" cx="491.6" cy="398.77" r="9.06"/>
      <circle class="cls-1" cx="492.7" cy="392.03" r="8.03"/>
      <circle class="cls-1" cx="493.79" cy="385.28" r="8.05"/>
      <circle class="cls-1" cx="494.89" cy="378.54" r="8.31"/>
      <circle class="cls-1" cx="496.44" cy="371.89" r="6.65"/>
      <circle class="cls-1" cx="498.01" cy="365.24" r="7.7"/>
      <circle class="cls-1" cx="499.59" cy="358.59" r="7.87"/>
      <circle class="cls-1" cx="501.76" cy="352.17" r="9.22"/>
      <circle class="cls-1" cx="505.1" cy="346.21" r="8.52"/>
      <circle class="cls-1" cx="508.44" cy="340.25" r="7.25"/>
      <circle class="cls-1" cx="511.78" cy="334.29" r="7.3"/>
      <circle class="cls-1" cx="517.04" cy="330.05" r="8.67"/>
      <circle class="cls-1" cx="522.6" cy="326.07" r="9"/>
      <circle class="cls-1" cx="528.16" cy="322.09" r="7.82"/>
      <circle class="cls-1" cx="533.92" cy="318.54" r="7.78"/>
      <circle class="cls-1" cx="540.48" cy="316.62" r="6.24"/>
      <circle class="cls-1" cx="547.03" cy="314.69" r="9"/>
      <circle class="cls-1" cx="553.59" cy="312.77" r="6.81"/>
      <circle class="cls-1" cx="560.24" cy="311.28" r="6.22"/>
      <circle class="cls-1" cx="566.99" cy="310.21" r="7.25"/>
      <circle class="cls-1" cx="573.74" cy="309.14" r="9.05"/>
      <circle class="cls-1" cx="580.49" cy="308.08" r="7.82"/>
      <circle class="cls-1" cx="587.15" cy="306.55" r="8.43"/>
      <circle class="cls-1" cx="593.78" cy="304.91" r="6.65"/>
      <circle class="cls-1" cx="600.42" cy="303.28" r="8.78"/>
      <circle class="cls-1" cx="606.97" cy="301.41" r="8.42"/>
      <circle class="cls-1" cx="613.23" cy="298.66" r="8.76"/>
      <circle class="cls-1" cx="619.48" cy="295.9" r="8.34"/>
      <circle class="cls-1" cx="625.73" cy="293.15" r="6.87"/>
      <circle class="cls-1" cx="631.72" cy="289.87" r="6.5"/>
      <circle class="cls-1" cx="637.69" cy="286.53" r="6.4"/>
      <circle class="cls-1" cx="643.65" cy="283.19" r="8.83"/>
      <circle class="cls-1" cx="649.77" cy="280.19" r="6.28"/>
      <circle class="cls-1" cx="656.2" cy="277.88" r="6.74"/>
      <circle class="cls-1" cx="662.62" cy="275.57" r="8.31"/>
      <circle class="cls-1" cx="669.05" cy="273.25" r="7.18"/>
      <circle class="cls-1" cx="675.48" cy="270.94" r="7.24"/>
      <circle class="cls-1" cx="682.01" cy="269.03" r="7.09"/>
      <circle class="cls-1" cx="688.78" cy="268.09" r="8.01"/>
      <circle class="cls-1" cx="695.55" cy="267.15" r="7.33"/>
      <circle class="cls-1" cx="702.32" cy="266.21" r="6.95"/>
      <circle class="cls-1" cx="709.09" cy="265.27" r="6.57"/>
      <circle class="cls-1" cx="715.85" cy="264.32" r="6.28"/>
      <circle class="cls-1" cx="722.61" cy="263.29" r="7.98"/>
      <circle class="cls-1" cx="729.36" cy="262.26" r="6.31"/>
      <circle class="cls-1" cx="736.12" cy="261.23" r="7.69"/>
      <circle class="cls-1" cx="742.87" cy="260.2" r="8.86"/>
      <circle class="cls-1" cx="749.63" cy="259.17" r="7.36"/>
      <circle class="cls-1" cx="756.12" cy="257.05" r="8.34"/>
      <circle class="cls-1" cx="762.61" cy="254.9" r="6.13"/>
      <circle class="cls-1" cx="769.1" cy="252.76" r="6.67"/>
      <circle class="cls-1" cx="775.53" cy="250.48" r="6.18"/>
      <circle class="cls-1" cx="781.54" cy="247.23" r="7.1"/>
      <circle class="cls-1" cx="787.55" cy="243.99" r="7.13"/>
      <circle class="cls-1" cx="793.57" cy="240.74" r="8.55"/>
      <circle class="cls-1" cx="799.42" cy="237.25" r="6.28"/>
      <circle class="cls-1" cx="804.83" cy="233.08" r="7.32"/>
      <circle class="cls-1" cx="810.07" cy="228.73" r="8.46"/>
      <circle class="cls-1" cx="814.37" cy="223.42" r="9.21"/>
      <circle class="cls-1" cx="818.48" cy="218.01" r="8.47"/>
      <circle class="cls-1" cx="820.24" cy="211.41" r="7.84"/>
      <circle class="cls-1" cx="821.99" cy="204.8" r="7.51"/>
      <circle class="cls-1" cx="823.75" cy="198.2" r="7.94"/>
      <circle class="cls-1" cx="822.91" cy="191.43" r="6.59"/>
      <circle class="cls-1" cx="822.02" cy="184.65" r="7.37"/>
      <circle class="cls-1" cx="821.13" cy="177.88" r="7.72"/>
      <circle class="cls-1" cx="818.64" cy="171.57" r="7.21"/>
      <circle class="cls-1" cx="815.79" cy="165.35" r="7.55"/>
      <circle class="cls-1" cx="812.95" cy="159.14" r="7.8"/>
      <circle class="cls-1" cx="809.91" cy="153.06" r="7.72"/>
      <circle class="cls-1" cx="805.1" cy="148.2" r="6.63"/>
      <circle class="cls-1" cx="800.3" cy="143.34" r="8.9"/>
      <circle class="cls-1" cx="795.5" cy="138.48" r="5.91"/>
      <circle class="cls-1" cx="790.01" cy="134.7" r="6.47"/>
      <circle class="cls-1" cx="783.57" cy="132.43" r="8.28"/>
      <circle class="cls-1" cx="777.12" cy="130.16" r="8.27"/>
      <circle class="cls-1" cx="770.68" cy="127.89" r="6.77"/>
      <circle class="cls-1" cx="764.01" cy="126.85" r="7.21"/>
      <circle class="cls-1" cx="757.18" cy="126.69" r="7.56"/>
      <circle class="cls-1" cx="750.34" cy="126.53" r="6.12"/>
      <circle class="cls-1" cx="743.51" cy="126.38" r="9.06"/>
      <circle class="cls-1" cx="736.68" cy="126.49" r="8.74"/>
      <circle class="cls-1" cx="729.86" cy="126.8" r="7.7"/>
      <circle class="cls-1" cx="723.03" cy="127.11" r="9.12"/>
      <circle class="cls-1" cx="716.21" cy="127.43" r="6.03"/>
      <circle class="cls-1" cx="709.46" cy="126.65" r="6.42"/>
      <circle class="cls-1" cx="702.75" cy="125.36" r="7.33"/>
      <circle class="cls-1" cx="696.04" cy="124.07" r="8.42"/>
      <circle class="cls-1" cx="689.47" cy="122.33" r="6.85"/>
      <circle class="cls-1" cx="683.23" cy="119.54" r="8.28"/>
      <circle class="cls-1" cx="677" cy="116.75" r="6.08"/>
      <circle class="cls-1" cx="670.76" cy="113.96" r="9.19"/>
      <circle class="cls-1" cx="664.68" cy="110.83" r="6.62"/>
      <circle class="cls-1" cx="658.64" cy="107.65" r="8.7"/>
      <circle class="cls-1" cx="652.74" cy="104.23" r="7.07"/>
      <circle class="cls-1" cx="647.19" cy="100.23" r="7.26"/>
      <circle class="cls-1" cx="641.65" cy="96.24" r="8.52"/>
      <circle class="cls-1" cx="636.85" cy="91.43" r="7.57"/>
      <circle class="cls-1" cx="632.32" cy="86.31" r="5.99"/>
      <circle class="cls-1" cx="627.87" cy="81.13" r="7.94"/>
      <circle class="cls-1" cx="623.72" cy="75.69" r="8.71"/>
      <circle class="cls-1" cx="619.58" cy="70.26" r="6.7"/>
      <circle class="cls-1" cx="614.77" cy="65.44" r="7.91"/>
      <circle class="cls-1" cx="609.69" cy="60.87" r="9.14"/>
      <circle class="cls-1" cx="604.61" cy="56.3" r="7.84"/>
      <circle class="cls-1" cx="599.53" cy="51.73" r="7.84"/>
      <circle class="cls-1" cx="594.45" cy="47.16" r="6.81"/>
      <circle class="cls-1" cx="589.37" cy="42.59" r="6.22"/>
      <circle class="cls-1" cx="583.23" cy="39.63" r="8.23"/>
      <circle class="cls-1" cx="577.03" cy="36.76" r="5.91"/>
      <circle class="cls-1" cx="570.82" cy="33.9" r="8.45"/>
      <circle class="cls-1" cx="564.62" cy="31.03" r="6.14"/>
      <circle class="cls-1" cx="558.42" cy="28.17" r="7.7"/>
      <circle class="cls-1" cx="552.05" cy="25.83" r="8.08"/>
      <circle class="cls-1" cx="545.33" cy="24.59" r="8.8"/>
      <circle class="cls-1" cx="538.61" cy="23.35" r="6.65"/>
      <circle class="cls-1" cx="531.89" cy="22.12" r="8.95"/>
      <circle class="cls-1" cx="525.17" cy="20.88" r="7.12"/>
      <circle class="cls-1" cx="518.45" cy="19.64" r="8.49"/>
      <circle class="cls-1" cx="511.67" cy="18.93" r="6.98"/>
      <circle class="cls-1" cx="504.84" cy="18.6" r="6.06"/>
      <circle class="cls-1" cx="498.02" cy="18.27" r="8"/>
      <circle class="cls-1" cx="491.19" cy="17.94" r="6.55"/>
      <circle class="cls-1" cx="484.36" cy="17.61" r="5.95"/>
      <circle class="cls-1" cx="477.54" cy="17.29" r="6.93"/>
      <circle class="cls-1" cx="470.71" cy="16.96" r="9.21"/>
      <circle class="cls-1" cx="463.89" cy="16.63" r="7.56"/>
      <circle class="cls-1" cx="457.06" cy="16.3" r="6.76"/>
      <circle class="cls-1" cx="450.24" cy="15.97" r="8.63"/>
      <circle class="cls-1" cx="443.41" cy="15.65" r="9.12"/>
      <circle class="cls-1" cx="436.58" cy="15.62" r="7.81"/>
      <circle class="cls-1" cx="429.75" cy="15.68" r="7.15"/>
      <circle class="cls-1" cx="422.92" cy="15.73" r="7.18"/>
      <circle class="cls-1" cx="416.08" cy="15.79" r="8.38"/>
      <circle class="cls-1" cx="409.25" cy="15.84" r="7.76"/>
      <circle class="cls-1" cx="402.42" cy="15.9" r="8.12"/>
      <circle class="cls-1" cx="395.58" cy="15.95" r="8.92"/>
      <circle class="cls-1" cx="388.75" cy="16.01" r="7.32"/>
      <circle class="cls-1" cx="381.92" cy="16.06" r="6.94"/>
      <circle class="cls-1" cx="375.09" cy="16.12" r="6.13"/>
      <circle class="cls-1" cx="368.25" cy="16.18" r="9.09"/>
      <circle class="cls-1" cx="361.42" cy="16.44" r="7.8"/>
      <circle class="cls-1" cx="354.6" cy="16.7" r="6.44"/>
      <circle class="cls-1" cx="347.77" cy="16.96" r="7.11"/>
      <circle class="cls-1" cx="340.94" cy="17.22" r="8.67"/>
      <circle class="cls-1" cx="334.11" cy="17.48" r="7.4"/>
      <circle class="cls-1" cx="327.28" cy="17.74" r="5.96"/>
      <circle class="cls-1" cx="320.46" cy="18.01" r="8.53"/>
      <circle class="cls-1" cx="313.63" cy="18.27" r="7.36"/>
      <circle class="cls-1" cx="306.8" cy="18.33" r="6.83"/>
      <circle class="cls-1" cx="299.97" cy="18.19" r="8.89"/>
      <circle class="cls-1" cx="293.13" cy="18.05" r="8.84"/>
      <circle class="cls-1" cx="286.3" cy="17.91" r="9"/>
      <circle class="cls-1" cx="279.47" cy="17.77" r="8.46"/>
      <circle class="cls-1" cx="272.64" cy="17.63" r="8.82"/>
      <circle class="cls-1" cx="265.81" cy="17.48" r="7.82"/>
      <circle class="cls-1" cx="258.98" cy="17.34" r="8.69"/>
      <circle class="cls-1" cx="252.14" cy="17.2" r="6.83"/>
      <circle class="cls-1" cx="245.31" cy="17.06" r="6.28"/>
      <circle class="cls-1" cx="238.48" cy="16.92" r="8.2"/>
      <circle class="cls-1" cx="231.66" cy="16.57" r="6.26"/>
      <circle class="cls-1" cx="224.84" cy="16.08" r="8.85"/>
      <circle class="cls-1" cx="218.03" cy="15.6" r="9.2"/>
      <circle class="cls-1" cx="211.21" cy="15.11" r="8.71"/>
      <circle class="cls-1" cx="204.39" cy="14.63" r="7.44"/>
      <circle class="cls-1" cx="197.58" cy="14.14" r="7.21"/>
      <circle class="cls-1" cx="190.76" cy="13.66" r="6.4"/>
      <circle class="cls-1" cx="183.95" cy="13.18" r="8.17"/>
      <circle class="cls-1" cx="177.13" cy="12.69" r="8.61"/>
      <circle class="cls-1" cx="170.31" cy="12.21" r="8.93"/>
      <circle class="cls-1" cx="163.5" cy="11.72" r="7.02"/>
      <circle class="cls-1" cx="156.68" cy="11.36" r="8.45"/>
      <circle class="cls-1" cx="149.85" cy="11.04" r="7.33"/>
      <circle class="cls-1" cx="143.02" cy="10.72" r="6.62"/>
      <circle class="cls-1" cx="136.2" cy="10.4" r="7.89"/>
      <circle class="cls-1" cx="129.37" cy="10.08" r="7.32"/>
      <circle class="cls-1" cx="122.55" cy="9.76" r="8.75"/>
      <circle class="cls-1" cx="115.72" cy="9.44" r="7.98"/>
      <circle class="cls-1" cx="108.9" cy="9.13" r="8.93"/>
      <circle class="cls-1" cx="102.07" cy="8.81" r="6.26"/>
      <circle class="cls-1" cx="95.24" cy="8.49" r="8.49"/>
      <circle class="cls-1" cx="88.43" cy="8.62" r="6.28"/>
      <circle class="cls-1" cx="81.61" cy="9.14" r="7.02"/>
      <circle class="cls-1" cx="74.8" cy="9.67" r="8.45"/>
      <circle class="cls-1" cx="67.99" cy="10.19" r="9.01"/>
      <circle class="cls-1" cx="61.17" cy="10.72" r="8.56"/>
      <circle class="cls-1" cx="54.36" cy="11.24" r="9.08"/>
      <circle class="cls-1" cx="47.56" cy="11.9" r="5.91"/>
      <circle class="cls-1" cx="40.8" cy="12.9" r="7.67"/>
      <circle class="cls-1" cx="34.04" cy="13.9" r="6.94"/>
      <circle class="cls-1" cx="27.29" cy="14.91" r="7.21"/>
      <circle class="cls-1" cx="20.53" cy="15.91" r="8.54"/>
      <circle class="cls-1" cx="13.77" cy="16.91" r="8.37"/>
      <circle class="cls-1" cx="7.01" cy="17.92" r="6.91"/>
    </g>
  </g>
</svg>