<?xml version="1.0" encoding="UTF-8"?>
<svg id="_레이어_2" data-name="레이어 2" xmlns="http://www.w3.org/2000/svg" viewBox="0 0 835.4 464.44">
  <defs>
    <style>
      .cls-1 {
        fill: #968a77;
      }
    </style>
  </defs>
  <g id="_레이어_1-2" data-name="레이어 1">
    <g>
      <circle class="cls-1" cx="233.76" cy="178.03" r="10.87"/>
      <circle class="cls-1" cx="241.23" cy="182.17" r="7.99"/>
      <circle class="cls-1" cx="248.7" cy="186.31" r="8.07"/>
      <circle class="cls-1" cx="256.17" cy="190.46" r="11.13"/>
      <circle class="cls-1" cx="263.64" cy="194.6" r="9.58"/>
      <circle class="cls-1" cx="271.14" cy="198.69" r="8.4"/>
      <circle class="cls-1" cx="278.7" cy="202.65" r="11.19"/>
      <circle class="cls-1" cx="286.27" cy="206.62" r="8"/>
      <circle class="cls-1" cx="293.83" cy="210.58" r="8.51"/>
      <circle class="cls-1" cx="301.4" cy="214.54" r="9.16"/>
      <circle class="cls-1" cx="308.97" cy="218.51" r="8.13"/>
      <circle class="cls-1" cx="316.88" cy="221.71" r="9.59"/>
      <circle class="cls-1" cx="324.86" cy="224.75" r="7.9"/>
      <circle class="cls-1" cx="332.84" cy="227.79" r="7.54"/>
      <circle class="cls-1" cx="340.9" cy="230.59" r="8.49"/>
      <circle class="cls-1" cx="349.11" cy="232.95" r="10.82"/>
      <circle class="cls-1" cx="357.32" cy="235.31" r="7.96"/>
      <circle class="cls-1" cx="365.53" cy="237.66" r="11.31"/>
      <circle class="cls-1" cx="373.98" cy="238.66" r="7.61"/>
      <circle class="cls-1" cx="382.5" cy="239.3" r="8.48"/>
      <circle class="cls-1" cx="391.02" cy="239.94" r="10.5"/>
      <circle class="cls-1" cx="399.51" cy="239.92" r="10.5"/>
      <circle class="cls-1" cx="407.94" cy="238.56" r="10.75"/>
      <circle class="cls-1" cx="416.26" cy="236.65" r="10.99"/>
      <circle class="cls-1" cx="424.56" cy="234.64" r="7.71"/>
      <circle class="cls-1" cx="432.58" cy="231.7" r="11.53"/>
      <circle class="cls-1" cx="437.92" cy="225.47" r="8.87"/>
      <circle class="cls-1" cx="442.31" cy="218.18" r="9.12"/>
      <circle class="cls-1" cx="442.71" cy="209.64" r="8.9"/>
      <circle class="cls-1" cx="442.97" cy="201.12" r="9.93"/>
      <circle class="cls-1" cx="440.91" cy="192.83" r="9.66"/>
      <circle class="cls-1" cx="438.19" cy="184.91" r="10.26"/>
      <circle class="cls-1" cx="432.28" cy="178.74" r="11.03"/>
      <circle class="cls-1" cx="425.37" cy="173.82" r="8.06"/>
      <circle class="cls-1" cx="418.07" cy="169.4" r="8.5"/>
      <circle class="cls-1" cx="410.32" cy="165.83" r="9.68"/>
      <circle class="cls-1" cx="402.32" cy="163" r="8.73"/>
      <circle class="cls-1" cx="393.87" cy="161.72" r="8.13"/>
      <circle class="cls-1" cx="385.43" cy="160.45" r="10.64"/>
      <circle class="cls-1" cx="376.98" cy="159.17" r="10.25"/>
      <circle class="cls-1" cx="368.52" cy="158.01" r="8.98"/>
      <circle class="cls-1" cx="359.99" cy="157.51" r="11.5"/>
      <circle class="cls-1" cx="351.47" cy="157.01" r="9.31"/>
      <circle class="cls-1" cx="342.94" cy="156.51" r="9.37"/>
      <circle class="cls-1" cx="334.42" cy="155.99" r="9.46"/>
      <circle class="cls-1" cx="325.93" cy="155.05" r="8.27"/>
      <circle class="cls-1" cx="317.44" cy="154.11" r="7.63"/>
      <circle class="cls-1" cx="308.95" cy="153.17" r="8.32"/>
      <circle class="cls-1" cx="300.46" cy="152.24" r="8.27"/>
      <circle class="cls-1" cx="291.97" cy="151.3" r="9.94"/>
      <circle class="cls-1" cx="283.57" cy="149.78" r="11.52"/>
      <circle class="cls-1" cx="275.22" cy="147.99" r="9.14"/>
      <circle class="cls-1" cx="266.87" cy="146.21" r="8.89"/>
      <circle class="cls-1" cx="258.51" cy="144.42" r="8.6"/>
      <circle class="cls-1" cx="250.16" cy="142.64" r="7.71"/>
      <circle class="cls-1" cx="241.83" cy="140.75" r="9.8"/>
      <circle class="cls-1" cx="233.55" cy="138.66" r="7.62"/>
      <circle class="cls-1" cx="225.27" cy="136.57" r="8.31"/>
      <circle class="cls-1" cx="216.99" cy="134.48" r="11.39"/>
      <circle class="cls-1" cx="208.51" cy="133.42" r="10.32"/>
      <circle class="cls-1" cx="200.03" cy="132.41" r="7.72"/>
      <circle class="cls-1" cx="191.55" cy="131.4" r="10.14"/>
      <circle class="cls-1" cx="183.04" cy="130.95" r="9.75"/>
      <circle class="cls-1" cx="174.49" cy="130.94" r="7.99"/>
      <circle class="cls-1" cx="165.95" cy="130.93" r="7.54"/>
      <circle class="cls-1" cx="157.52" cy="132.22" r="8.74"/>
      <circle class="cls-1" cx="149.11" cy="133.71" r="9.37"/>
      <circle class="cls-1" cx="140.81" cy="135.5" r="8.96"/>
      <circle class="cls-1" cx="133.37" cy="139.69" r="11.54"/>
      <circle class="cls-1" cx="125.93" cy="143.88" r="10.26"/>
      <circle class="cls-1" cx="119.76" cy="149.53" r="10.16"/>
      <circle class="cls-1" cx="114.63" cy="156.36" r="7.52"/>
      <circle class="cls-1" cx="111.89" cy="164.4" r="8.48"/>
      <circle class="cls-1" cx="110.55" cy="172.63" r="9.24"/>
      <circle class="cls-1" cx="112.17" cy="181.02" r="9.78"/>
      <circle class="cls-1" cx="116.84" cy="187.83" r="7.54"/>
      <circle class="cls-1" cx="122.74" cy="194.01" r="8.95"/>
      <circle class="cls-1" cx="129.11" cy="199.66" r="9.48"/>
      <circle class="cls-1" cx="135.9" cy="204.83" r="10.72"/>
      <circle class="cls-1" cx="142.7" cy="210.01" r="8.64"/>
      <circle class="cls-1" cx="149.49" cy="215.18" r="8.92"/>
      <circle class="cls-1" cx="156.29" cy="220.35" r="9.53"/>
      <circle class="cls-1" cx="163.11" cy="225.49" r="9.44"/>
      <circle class="cls-1" cx="170.31" cy="230.09" r="8.96"/>
      <circle class="cls-1" cx="177.51" cy="234.69" r="11.31"/>
      <circle class="cls-1" cx="184.7" cy="239.29" r="9.81"/>
      <circle class="cls-1" cx="191.9" cy="243.88" r="8.75"/>
      <circle class="cls-1" cx="199.1" cy="248.48" r="7.38"/>
      <circle class="cls-1" cx="206.7" cy="252.33" r="7.94"/>
      <circle class="cls-1" cx="214.53" cy="255.73" r="9.92"/>
      <circle class="cls-1" cx="222.37" cy="259.12" r="10.46"/>
      <circle class="cls-1" cx="230.21" cy="262.51" r="11.11"/>
      <circle class="cls-1" cx="238.05" cy="265.9" r="10.59"/>
      <circle class="cls-1" cx="246.07" cy="268.68" r="9.57"/>
      <circle class="cls-1" cx="254.5" cy="270.04" r="7.99"/>
      <circle class="cls-1" cx="262.94" cy="271.4" r="10.32"/>
      <circle class="cls-1" cx="271.37" cy="272.75" r="10.73"/>
      <circle class="cls-1" cx="279.8" cy="274.11" r="10.04"/>
      <circle class="cls-1" cx="288.24" cy="275.44" r="9.23"/>
      <circle class="cls-1" cx="296.78" cy="275.59" r="7.76"/>
      <circle class="cls-1" cx="305.22" cy="276.44" r="9.67"/>
      <circle class="cls-1" cx="313.49" cy="278.59" r="7.83"/>
      <circle class="cls-1" cx="320.5" cy="283.16" r="11.47"/>
      <circle class="cls-1" cx="326.85" cy="288.84" r="8.34"/>
      <circle class="cls-1" cx="332.27" cy="295.45" r="11.02"/>
      <circle class="cls-1" cx="338.37" cy="301.35" r="8.23"/>
      <circle class="cls-1" cx="345.1" cy="306.61" r="7.45"/>
      <circle class="cls-1" cx="351.83" cy="311.87" r="9.46"/>
      <circle class="cls-1" cx="359.35" cy="315.65" r="10.43"/>
      <circle class="cls-1" cx="367.48" cy="318.24" r="8.02"/>
      <circle class="cls-1" cx="375.62" cy="320.84" r="9.86"/>
      <circle class="cls-1" cx="383.99" cy="321.68" r="11.49"/>
      <circle class="cls-1" cx="392.52" cy="321.29" r="10.09"/>
      <circle class="cls-1" cx="401.05" cy="320.89" r="7.92"/>
      <circle class="cls-1" cx="409.18" cy="318.69" r="10.02"/>
      <circle class="cls-1" cx="417.06" cy="315.4" r="10.45"/>
      <circle class="cls-1" cx="424.94" cy="312.1" r="10.13"/>
      <circle class="cls-1" cx="432.28" cy="307.84" r="10.8"/>
      <circle class="cls-1" cx="439.18" cy="302.81" r="8.36"/>
      <circle class="cls-1" cx="446.08" cy="297.78" r="7.75"/>
      <circle class="cls-1" cx="452.79" cy="292.5" r="10"/>
      <circle class="cls-1" cx="459.29" cy="286.96" r="10.88"/>
      <circle class="cls-1" cx="465.78" cy="281.41" r="8.29"/>
      <circle class="cls-1" cx="472.44" cy="276.07" r="9.93"/>
      <circle class="cls-1" cx="479.34" cy="271.03" r="9.48"/>
      <circle class="cls-1" cx="486.24" cy="265.99" r="10.91"/>
      <circle class="cls-1" cx="493.49" cy="261.6" r="9.37"/>
      <circle class="cls-1" cx="501.43" cy="258.45" r="10.94"/>
      <circle class="cls-1" cx="509.37" cy="255.3" r="8.93"/>
      <circle class="cls-1" cx="517.31" cy="252.16" r="9.69"/>
      <circle class="cls-1" cx="525.26" cy="249.06" r="8.76"/>
      <circle class="cls-1" cx="533.69" cy="247.68" r="8.75"/>
      <circle class="cls-1" cx="542.12" cy="246.29" r="9.96"/>
      <circle class="cls-1" cx="550.55" cy="244.91" r="8.06"/>
      <circle class="cls-1" cx="558.98" cy="243.52" r="10.6"/>
      <circle class="cls-1" cx="567.44" cy="242.36" r="11.33"/>
      <circle class="cls-1" cx="575.91" cy="241.3" r="8.5"/>
      <circle class="cls-1" cx="584.39" cy="240.24" r="8.06"/>
      <circle class="cls-1" cx="592.86" cy="239.18" r="7.36"/>
      <circle class="cls-1" cx="601.27" cy="237.72" r="8.79"/>
      <circle class="cls-1" cx="609.56" cy="235.69" r="7.61"/>
      <circle class="cls-1" cx="617.86" cy="233.66" r="7.97"/>
      <circle class="cls-1" cx="626.01" cy="231.22" r="9.38"/>
      <circle class="cls-1" cx="633.68" cy="227.47" r="10.6"/>
      <circle class="cls-1" cx="641.36" cy="223.72" r="8.34"/>
      <circle class="cls-1" cx="648.89" cy="219.78" r="8.91"/>
      <circle class="cls-1" cx="654.86" cy="213.67" r="8.19"/>
      <circle class="cls-1" cx="660.82" cy="207.56" r="10.75"/>
      <circle class="cls-1" cx="663.5" cy="199.45" r="11.11"/>
      <circle class="cls-1" cx="665.15" cy="191.28" r="8.68"/>
      <circle class="cls-1" cx="663.3" cy="182.95" r="10.6"/>
      <circle class="cls-1" cx="659.63" cy="175.53" r="8.47"/>
      <circle class="cls-1" cx="653.99" cy="169.11" r="8.57"/>
      <circle class="cls-1" cx="647.46" cy="163.88" r="8.84"/>
      <circle class="cls-1" cx="639.74" cy="160.23" r="10.32"/>
      <circle class="cls-1" cx="632.02" cy="156.57" r="11.5"/>
      <circle class="cls-1" cx="624.29" cy="152.97" r="7.86"/>
      <circle class="cls-1" cx="615.87" cy="151.5" r="10.3"/>
      <circle class="cls-1" cx="607.46" cy="150.02" r="9.36"/>
      <circle class="cls-1" cx="599.05" cy="148.54" r="9.28"/>
      <circle class="cls-1" cx="590.57" cy="147.58" r="7.57"/>
      <circle class="cls-1" cx="582.05" cy="146.97" r="9.01"/>
      <circle class="cls-1" cx="573.53" cy="146.36" r="8.58"/>
      <circle class="cls-1" cx="565.01" cy="145.74" r="9.77"/>
      <circle class="cls-1" cx="556.58" cy="144.5" r="10.29"/>
      <circle class="cls-1" cx="548.23" cy="142.71" r="10.77"/>
      <circle class="cls-1" cx="539.88" cy="140.92" r="7.74"/>
      <circle class="cls-1" cx="531.53" cy="139.13" r="8.31"/>
      <circle class="cls-1" cx="523.67" cy="136.05" r="7.57"/>
      <circle class="cls-1" cx="516.26" cy="131.8" r="9.44"/>
      <circle class="cls-1" cx="508.85" cy="127.56" r="8.21"/>
      <circle class="cls-1" cx="501.43" cy="123.31" r="11.22"/>
      <circle class="cls-1" cx="494.21" cy="118.76" r="9.53"/>
      <circle class="cls-1" cx="487.19" cy="113.91" r="10.78"/>
      <circle class="cls-1" cx="480.16" cy="109.05" r="11.06"/>
      <circle class="cls-1" cx="473.14" cy="104.19" r="9.41"/>
      <circle class="cls-1" cx="465.79" cy="99.9" r="11.45"/>
      <circle class="cls-1" cx="458" cy="96.4" r="10.62"/>
      <circle class="cls-1" cx="450.21" cy="92.89" r="11.08"/>
      <circle class="cls-1" cx="442.42" cy="89.39" r="8.53"/>
      <circle class="cls-1" cx="434.59" cy="86.02" r="9.69"/>
      <circle class="cls-1" cx="426.26" cy="84.12" r="10.1"/>
      <circle class="cls-1" cx="417.93" cy="82.22" r="8.63"/>
      <circle class="cls-1" cx="409.61" cy="80.31" r="11.1"/>
      <circle class="cls-1" cx="401.28" cy="78.41" r="10.63"/>
      <circle class="cls-1" cx="392.82" cy="77.36" r="9.78"/>
      <circle class="cls-1" cx="384.31" cy="76.64" r="10.98"/>
      <circle class="cls-1" cx="375.8" cy="75.93" r="8.25"/>
      <circle class="cls-1" cx="367.29" cy="75.22" r="9.48"/>
      <circle class="cls-1" cx="358.77" cy="74.8" r="10.76"/>
      <circle class="cls-1" cx="350.23" cy="75" r="8.3"/>
      <circle class="cls-1" cx="341.69" cy="75.21" r="9.1"/>
      <circle class="cls-1" cx="333.15" cy="75.42" r="9.33"/>
      <circle class="cls-1" cx="324.61" cy="75.63" r="8.67"/>
      <circle class="cls-1" cx="316.07" cy="75.84" r="10.65"/>
      <circle class="cls-1" cx="307.53" cy="76.04" r="8.04"/>
      <circle class="cls-1" cx="298.99" cy="76.3" r="7.86"/>
      <circle class="cls-1" cx="290.47" cy="76.89" r="9.72"/>
      <circle class="cls-1" cx="281.95" cy="77.49" r="10.44"/>
      <circle class="cls-1" cx="273.43" cy="78.08" r="8.31"/>
      <circle class="cls-1" cx="264.91" cy="78.68" r="9.14"/>
      <circle class="cls-1" cx="256.39" cy="79.27" r="8.14"/>
      <circle class="cls-1" cx="247.87" cy="79.87" r="7.89"/>
      <circle class="cls-1" cx="239.35" cy="80.46" r="11.06"/>
      <circle class="cls-1" cx="230.81" cy="80.67" r="8.73"/>
      <circle class="cls-1" cx="222.27" cy="80.84" r="7.6"/>
      <circle class="cls-1" cx="213.73" cy="81.01" r="11.49"/>
      <circle class="cls-1" cx="205.19" cy="81.18" r="8.02"/>
      <circle class="cls-1" cx="196.65" cy="81.35" r="9.51"/>
      <circle class="cls-1" cx="188.11" cy="81.52" r="9.01"/>
      <circle class="cls-1" cx="179.57" cy="81.7" r="9.22"/>
      <circle class="cls-1" cx="171.05" cy="81.28" r="10.09"/>
      <circle class="cls-1" cx="162.53" cy="80.65" r="9.76"/>
      <circle class="cls-1" cx="154.01" cy="80.01" r="10.2"/>
      <circle class="cls-1" cx="145.5" cy="79.37" r="8.3"/>
      <circle class="cls-1" cx="136.98" cy="78.73" r="10.86"/>
      <circle class="cls-1" cx="128.46" cy="78.1" r="10.99"/>
      <circle class="cls-1" cx="119.94" cy="77.55" r="10.94"/>
      <circle class="cls-1" cx="111.41" cy="77.09" r="8.62"/>
      <circle class="cls-1" cx="102.88" cy="76.63" r="7.63"/>
      <circle class="cls-1" cx="94.35" cy="76.17" r="9.55"/>
      <circle class="cls-1" cx="85.82" cy="75.72" r="10.76"/>
      <circle class="cls-1" cx="77.29" cy="75.26" r="10.97"/>
      <circle class="cls-1" cx="68.77" cy="75.1" r="10.78"/>
      <circle class="cls-1" cx="60.26" cy="75.8" r="9.52"/>
      <circle class="cls-1" cx="51.74" cy="76.51" r="10.35"/>
      <circle class="cls-1" cx="43.56" cy="78.81" r="10.59"/>
      <circle class="cls-1" cx="35.45" cy="81.5" r="10.47"/>
      <circle class="cls-1" cx="28.12" cy="85.5" r="9.82"/>
      <circle class="cls-1" cx="21.85" cy="91.3" r="11.03"/>
      <circle class="cls-1" cx="16.12" cy="97.43" r="10.87"/>
      <circle class="cls-1" cx="13.85" cy="105.66" r="10.57"/>
      <circle class="cls-1" cx="11.57" cy="113.89" r="7.48"/>
      <circle class="cls-1" cx="11.28" cy="122.31" r="11.28"/>
      <circle class="cls-1" cx="12.02" cy="130.82" r="8.13"/>
      <circle class="cls-1" cx="12.78" cy="139.32" r="7.64"/>
      <circle class="cls-1" cx="13.92" cy="147.79" r="8.72"/>
      <circle class="cls-1" cx="15.06" cy="156.25" r="10.27"/>
      <circle class="cls-1" cx="15.77" cy="164.75" r="11.56"/>
      <circle class="cls-1" cx="15.75" cy="173.29" r="9.01"/>
      <circle class="cls-1" cx="15.74" cy="181.83" r="9.53"/>
      <circle class="cls-1" cx="16.38" cy="190.35" r="11.06"/>
      <circle class="cls-1" cx="17.04" cy="198.86" r="10.24"/>
      <circle class="cls-1" cx="19.37" cy="206.96" r="10.21"/>
      <circle class="cls-1" cx="22.81" cy="214.77" r="11.04"/>
      <circle class="cls-1" cx="26.56" cy="222.4" r="10.37"/>
      <circle class="cls-1" cx="32.27" cy="228.75" r="8.84"/>
      <circle class="cls-1" cx="37.97" cy="235.11" r="11.54"/>
      <circle class="cls-1" cx="44.44" cy="240.61" r="7.38"/>
      <circle class="cls-1" cx="51.38" cy="245.6" r="11.38"/>
      <circle class="cls-1" cx="58.36" cy="250.51" r="9.95"/>
      <circle class="cls-1" cx="65.9" cy="254.52" r="7.79"/>
      <circle class="cls-1" cx="73.45" cy="258.52" r="9.8"/>
      <circle class="cls-1" cx="80.99" cy="262.52" r="7.42"/>
      <circle class="cls-1" cx="88.49" cy="266.62" r="9.77"/>
      <circle class="cls-1" cx="95.86" cy="270.93" r="9.45"/>
      <circle class="cls-1" cx="103.24" cy="275.24" r="10.88"/>
      <circle class="cls-1" cx="110.61" cy="279.54" r="8.88"/>
      <circle class="cls-1" cx="117.48" cy="284.56" r="9.14"/>
      <circle class="cls-1" cx="123.91" cy="290.18" r="8.65"/>
      <circle class="cls-1" cx="130.34" cy="295.8" r="11.13"/>
      <circle class="cls-1" cx="136.75" cy="301.45" r="11.4"/>
      <circle class="cls-1" cx="142.71" cy="307.56" r="10.96"/>
      <circle class="cls-1" cx="148.67" cy="313.68" r="10.02"/>
      <circle class="cls-1" cx="154.63" cy="319.8" r="9.34"/>
      <circle class="cls-1" cx="160.87" cy="325.63" r="9.81"/>
      <circle class="cls-1" cx="167.32" cy="331.23" r="9.47"/>
      <circle class="cls-1" cx="173.77" cy="336.82" r="9.55"/>
      <circle class="cls-1" cx="180.3" cy="342.3" r="11.37"/>
      <circle class="cls-1" cx="187.92" cy="346.17" r="7.5"/>
      <circle class="cls-1" cx="195.53" cy="350.03" r="10"/>
      <circle class="cls-1" cx="203.15" cy="353.9" r="7.64"/>
      <circle class="cls-1" cx="210.77" cy="357.76" r="9.44"/>
      <circle class="cls-1" cx="218.63" cy="360.98" r="8.82"/>
      <circle class="cls-1" cx="226.91" cy="363.08" r="11.33"/>
      <circle class="cls-1" cx="235.19" cy="365.17" r="10.04"/>
      <circle class="cls-1" cx="243.47" cy="367.27" r="10.06"/>
      <circle class="cls-1" cx="251.75" cy="369.36" r="10.38"/>
      <circle class="cls-1" cx="260.13" cy="370.96" r="8.31"/>
      <circle class="cls-1" cx="268.57" cy="372.24" r="9.63"/>
      <circle class="cls-1" cx="277.02" cy="373.52" r="9.84"/>
      <circle class="cls-1" cx="285.46" cy="374.8" r="11.52"/>
      <circle class="cls-1" cx="293.91" cy="376.08" r="10.65"/>
      <circle class="cls-1" cx="302.34" cy="377.47" r="9.06"/>
      <circle class="cls-1" cx="310.76" cy="378.9" r="9.12"/>
      <circle class="cls-1" cx="319.18" cy="380.33" r="10.84"/>
      <circle class="cls-1" cx="327.6" cy="381.76" r="11.25"/>
      <circle class="cls-1" cx="336.02" cy="383.19" r="9.78"/>
      <circle class="cls-1" cx="344.2" cy="385.61" r="9.72"/>
      <circle class="cls-1" cx="352.36" cy="388.15" r="7.8"/>
      <circle class="cls-1" cx="360.52" cy="390.68" r="11.24"/>
      <circle class="cls-1" cx="368.01" cy="394.58" r="8.51"/>
      <circle class="cls-1" cx="375.03" cy="399.44" r="7.78"/>
      <circle class="cls-1" cx="382.05" cy="404.31" r="9.06"/>
      <circle class="cls-1" cx="388.32" cy="409.91" r="11.31"/>
      <circle class="cls-1" cx="393.15" cy="416.96" r="9.77"/>
      <circle class="cls-1" cx="397.97" cy="424.01" r="10.54"/>
      <circle class="cls-1" cx="402.97" cy="430.93" r="8.31"/>
      <circle class="cls-1" cx="408.13" cy="437.74" r="10.98"/>
      <circle class="cls-1" cx="413.3" cy="444.55" r="10.53"/>
      <circle class="cls-1" cx="420.27" cy="449.19" r="10.95"/>
      <circle class="cls-1" cx="427.87" cy="453.1" r="10.42"/>
      <circle class="cls-1" cx="435.75" cy="455.86" r="8.58"/>
      <circle class="cls-1" cx="444.29" cy="455.96" r="8.13"/>
      <circle class="cls-1" cx="452.83" cy="456.06" r="8"/>
      <circle class="cls-1" cx="460.64" cy="452.91" r="11.03"/>
      <circle class="cls-1" cx="468.32" cy="449.17" r="7.85"/>
      <circle class="cls-1" cx="474.92" cy="444.15" r="8.43"/>
      <circle class="cls-1" cx="479.92" cy="437.22" r="10.39"/>
      <circle class="cls-1" cx="484.91" cy="430.29" r="8.97"/>
      <circle class="cls-1" cx="488.07" cy="422.47" r="9.05"/>
      <circle class="cls-1" cx="490.44" cy="414.27" r="8.86"/>
      <circle class="cls-1" cx="492.8" cy="406.06" r="10.02"/>
      <circle class="cls-1" cx="494.28" cy="397.65" r="9.16"/>
      <circle class="cls-1" cx="495.65" cy="389.22" r="8.69"/>
      <circle class="cls-1" cx="497.02" cy="380.79" r="8.21"/>
      <circle class="cls-1" cx="498.97" cy="372.47" r="7.85"/>
      <circle class="cls-1" cx="500.93" cy="364.16" r="9.97"/>
      <circle class="cls-1" cx="503.06" cy="355.91" r="7.89"/>
      <circle class="cls-1" cx="507.23" cy="348.46" r="9.61"/>
      <circle class="cls-1" cx="511.41" cy="341.01" r="11.07"/>
      <circle class="cls-1" cx="516.4" cy="334.29" r="9.2"/>
      <circle class="cls-1" cx="523.35" cy="329.32" r="10.42"/>
      <circle class="cls-1" cx="530.29" cy="324.34" r="7.66"/>
      <circle class="cls-1" cx="537.69" cy="320.31" r="8.34"/>
      <circle class="cls-1" cx="545.89" cy="317.91" r="7.73"/>
      <circle class="cls-1" cx="554.09" cy="315.5" r="8.87"/>
      <circle class="cls-1" cx="562.38" cy="313.53" r="8.91"/>
      <circle class="cls-1" cx="570.82" cy="312.2" r="10.68"/>
      <circle class="cls-1" cx="579.25" cy="310.86" r="7.85"/>
      <circle class="cls-1" cx="587.62" cy="309.21" r="9.14"/>
      <circle class="cls-1" cx="595.92" cy="307.16" r="10.57"/>
      <circle class="cls-1" cx="604.21" cy="305.12" r="11.52"/>
      <circle class="cls-1" cx="612.24" cy="302.29" r="10.59"/>
      <circle class="cls-1" cx="620.05" cy="298.84" r="9.8"/>
      <circle class="cls-1" cx="627.87" cy="295.4" r="9.39"/>
      <circle class="cls-1" cx="635.35" cy="291.28" r="9.92"/>
      <circle class="cls-1" cx="642.8" cy="287.11" r="8.23"/>
      <circle class="cls-1" cx="650.29" cy="283.02" r="9.21"/>
      <circle class="cls-1" cx="658.33" cy="280.13" r="9.65"/>
      <circle class="cls-1" cx="666.37" cy="277.24" r="9.02"/>
      <circle class="cls-1" cx="674.4" cy="274.35" r="9.43"/>
      <circle class="cls-1" cx="682.46" cy="271.51" r="9.76"/>
      <circle class="cls-1" cx="690.92" cy="270.34" r="9.65"/>
      <circle class="cls-1" cx="699.38" cy="269.17" r="8.29"/>
      <circle class="cls-1" cx="707.84" cy="267.99" r="11.13"/>
      <circle class="cls-1" cx="716.3" cy="266.82" r="7.39"/>
      <circle class="cls-1" cx="724.74" cy="265.54" r="8.08"/>
      <circle class="cls-1" cx="733.19" cy="264.25" r="10.35"/>
      <circle class="cls-1" cx="741.63" cy="262.96" r="10.33"/>
      <circle class="cls-1" cx="750.07" cy="261.67" r="8.46"/>
      <circle class="cls-1" cx="758.26" cy="259.3" r="9.01"/>
      <circle class="cls-1" cx="766.37" cy="256.62" r="9.45"/>
      <circle class="cls-1" cx="774.48" cy="253.94" r="7.65"/>
      <circle class="cls-1" cx="782.17" cy="250.3" r="11.33"/>
      <circle class="cls-1" cx="789.69" cy="246.24" r="10.92"/>
      <circle class="cls-1" cx="797.2" cy="242.18" r="9.62"/>
      <circle class="cls-1" cx="804.26" cy="237.42" r="11.4"/>
      <circle class="cls-1" cx="811.03" cy="232.21" r="7.54"/>
      <circle class="cls-1" cx="816.5" cy="225.67" r="8.03"/>
      <circle class="cls-1" cx="821.06" cy="218.61" r="9.16"/>
      <circle class="cls-1" cx="823.25" cy="210.36" r="10.53"/>
      <circle class="cls-1" cx="825.44" cy="202.1" r="8.56"/>
      <circle class="cls-1" cx="825.05" cy="193.68" r="10.35"/>
      <circle class="cls-1" cx="823.94" cy="185.21" r="7.6"/>
      <circle class="cls-1" cx="822.2" cy="176.92" r="11.49"/>
      <circle class="cls-1" cx="818.64" cy="169.16" r="8.27"/>
      <circle class="cls-1" cx="815.08" cy="161.39" r="10.87"/>
      <circle class="cls-1" cx="810.84" cy="154.1" r="8.84"/>
      <circle class="cls-1" cx="804.84" cy="148.02" r="9.07"/>
      <circle class="cls-1" cx="798.84" cy="141.94" r="10.65"/>
      <circle class="cls-1" cx="792.15" cy="136.95" r="9.46"/>
      <circle class="cls-1" cx="784.09" cy="134.11" r="7.49"/>
      <circle class="cls-1" cx="776.03" cy="131.28" r="9.93"/>
      <circle class="cls-1" cx="767.85" cy="129.14" r="10.89"/>
      <circle class="cls-1" cx="759.31" cy="128.94" r="8.37"/>
      <circle class="cls-1" cx="750.77" cy="128.75" r="9.89"/>
      <circle class="cls-1" cx="742.23" cy="128.58" r="11.42"/>
      <circle class="cls-1" cx="733.7" cy="128.97" r="9.8"/>
      <circle class="cls-1" cx="725.17" cy="129.37" r="9.81"/>
      <circle class="cls-1" cx="716.64" cy="129.76" r="8.51"/>
      <circle class="cls-1" cx="708.24" cy="128.26" r="7.78"/>
      <circle class="cls-1" cx="699.85" cy="126.64" r="10.28"/>
      <circle class="cls-1" cx="691.61" cy="124.58" r="7.38"/>
      <circle class="cls-1" cx="683.81" cy="121.09" r="10.56"/>
      <circle class="cls-1" cx="676.01" cy="117.6" r="7.68"/>
      <circle class="cls-1" cx="668.33" cy="113.88" r="9.63"/>
      <circle class="cls-1" cx="660.77" cy="109.9" r="10.1"/>
      <circle class="cls-1" cx="653.48" cy="105.48" r="10.99"/>
      <circle class="cls-1" cx="646.56" cy="100.49" r="8.31"/>
      <circle class="cls-1" cx="640.11" cy="94.96" r="11.19"/>
      <circle class="cls-1" cx="634.45" cy="88.56" r="8.9"/>
      <circle class="cls-1" cx="628.97" cy="82.02" r="10.61"/>
      <circle class="cls-1" cx="623.79" cy="75.23" r="8.73"/>
      <circle class="cls-1" cx="618.18" cy="68.83" r="7.58"/>
      <circle class="cls-1" cx="611.83" cy="63.12" r="10"/>
      <circle class="cls-1" cx="605.48" cy="57.41" r="8.18"/>
      <circle class="cls-1" cx="599.12" cy="51.7" r="7.43"/>
      <circle class="cls-1" cx="592.77" cy="45.99" r="8.66"/>
      <circle class="cls-1" cx="585.37" cy="41.88" r="11.51"/>
      <circle class="cls-1" cx="577.61" cy="38.3" r="9.45"/>
      <circle class="cls-1" cx="569.86" cy="34.71" r="8.45"/>
      <circle class="cls-1" cx="562.1" cy="31.13" r="10.79"/>
      <circle class="cls-1" cx="554.18" cy="28.08" r="11.4"/>
      <circle class="cls-1" cx="545.78" cy="26.53" r="9.77"/>
      <circle class="cls-1" cx="537.38" cy="24.99" r="8.94"/>
      <circle class="cls-1" cx="528.98" cy="23.44" r="8.98"/>
      <circle class="cls-1" cx="520.58" cy="21.89" r="10.48"/>
      <circle class="cls-1" cx="512.09" cy="21.09" r="9.7"/>
      <circle class="cls-1" cx="503.56" cy="20.68" r="10.15"/>
      <circle class="cls-1" cx="495.03" cy="20.27" r="11.15"/>
      <circle class="cls-1" cx="486.5" cy="19.86" r="9.15"/>
      <circle class="cls-1" cx="477.97" cy="19.45" r="8.68"/>
      <circle class="cls-1" cx="469.44" cy="19.04" r="7.66"/>
      <circle class="cls-1" cx="460.9" cy="18.64" r="11.36"/>
      <circle class="cls-1" cx="452.37" cy="18.23" r="9.74"/>
      <circle class="cls-1" cx="443.84" cy="17.83" r="8.05"/>
      <circle class="cls-1" cx="435.3" cy="17.9" r="8.89"/>
      <circle class="cls-1" cx="426.76" cy="17.97" r="10.84"/>
      <circle class="cls-1" cx="418.22" cy="18.04" r="9.25"/>
      <circle class="cls-1" cx="409.68" cy="18.11" r="7.45"/>
      <circle class="cls-1" cx="401.14" cy="18.18" r="10.66"/>
      <circle class="cls-1" cx="392.59" cy="18.25" r="9.2"/>
      <circle class="cls-1" cx="384.05" cy="18.32" r="8.54"/>
      <circle class="cls-1" cx="375.51" cy="18.38" r="11.11"/>
      <circle class="cls-1" cx="366.97" cy="18.56" r="11.06"/>
      <circle class="cls-1" cx="358.44" cy="18.89" r="11.25"/>
      <circle class="cls-1" cx="349.9" cy="19.21" r="10.57"/>
      <circle class="cls-1" cx="341.37" cy="19.54" r="11.03"/>
      <circle class="cls-1" cx="332.83" cy="19.86" r="9.77"/>
      <circle class="cls-1" cx="324.3" cy="20.19" r="10.87"/>
      <circle class="cls-1" cx="315.76" cy="20.52" r="8.54"/>
      <circle class="cls-1" cx="307.22" cy="20.55" r="7.85"/>
      <circle class="cls-1" cx="298.68" cy="20.37" r="10.25"/>
      <circle class="cls-1" cx="290.15" cy="20.19" r="7.83"/>
      <circle class="cls-1" cx="281.61" cy="20.02" r="11.06"/>
      <circle class="cls-1" cx="273.07" cy="19.84" r="11.5"/>
      <circle class="cls-1" cx="264.53" cy="19.67" r="10.88"/>
      <circle class="cls-1" cx="255.99" cy="19.49" r="9.29"/>
      <circle class="cls-1" cx="247.45" cy="19.31" r="9.02"/>
      <circle class="cls-1" cx="238.91" cy="19.14" r="8"/>
      <circle class="cls-1" cx="230.39" cy="18.57" r="10.21"/>
      <circle class="cls-1" cx="221.87" cy="17.97" r="10.76"/>
      <circle class="cls-1" cx="213.35" cy="17.36" r="11.17"/>
      <circle class="cls-1" cx="204.83" cy="16.76" r="8.77"/>
      <circle class="cls-1" cx="196.31" cy="16.15" r="10.56"/>
      <circle class="cls-1" cx="187.79" cy="15.55" r="9.16"/>
      <circle class="cls-1" cx="179.27" cy="14.94" r="8.27"/>
      <circle class="cls-1" cx="170.75" cy="14.34" r="9.86"/>
      <circle class="cls-1" cx="162.22" cy="13.77" r="9.15"/>
      <circle class="cls-1" cx="153.69" cy="13.37" r="10.94"/>
      <circle class="cls-1" cx="145.16" cy="12.97" r="9.97"/>
      <circle class="cls-1" cx="136.63" cy="12.57" r="11.16"/>
      <circle class="cls-1" cx="128.1" cy="12.17" r="7.82"/>
      <circle class="cls-1" cx="119.56" cy="11.77" r="10.61"/>
      <circle class="cls-1" cx="111.03" cy="11.38" r="7.85"/>
      <circle class="cls-1" cx="102.5" cy="10.98" r="8.78"/>
      <circle class="cls-1" cx="93.97" cy="10.61" r="10.56"/>
      <circle class="cls-1" cx="85.45" cy="11.26" r="11.26"/>
      <circle class="cls-1" cx="76.93" cy="11.92" r="10.7"/>
      <circle class="cls-1" cx="68.42" cy="12.57" r="11.35"/>
      <circle class="cls-1" cx="59.9" cy="13.23" r="7.39"/>
      <circle class="cls-1" cx="51.39" cy="13.9" r="9.58"/>
      <circle class="cls-1" cx="42.94" cy="15.15" r="8.68"/>
      <circle class="cls-1" cx="34.49" cy="16.4" r="9.01"/>
      <circle class="cls-1" cx="26.04" cy="17.66" r="10.68"/>
      <circle class="cls-1" cx="17.59" cy="18.91" r="10.46"/>
      <circle class="cls-1" cx="9.14" cy="20.17" r="8.64"/>
    </g>
  </g>
</svg>